<mxfile host="Electron" agent="Mozilla/5.0 (Windows NT 10.0; Win64; x64) AppleWebKit/537.36 (KHTML, like Gecko) draw.io/25.0.1 Chrome/128.0.6613.186 Electron/32.2.6 Safari/537.36" version="25.0.1">
  <diagram name="Page-1" id="3yqpxKQvHaOyZTGhgoW6">
    <mxGraphModel dx="3698" dy="2728" grid="1" gridSize="10" guides="1" tooltips="1" connect="1" arrows="1" fold="1" page="1" pageScale="1" pageWidth="850" pageHeight="1100" math="0" shadow="0">
      <root>
        <mxCell id="0" />
        <mxCell id="1" parent="0" />
        <mxCell id="FEyQUM1H9zEpQc9rAPHr-9" value="" style="endArrow=blockThin;html=1;rounded=0;strokeColor=#000033;strokeWidth=2;endFill=1;exitX=1;exitY=0.5;exitDx=0;exitDy=0;endSize=4;" parent="1" source="FEyQUM1H9zEpQc9rAPHr-1" target="FEyQUM1H9zEpQc9rAPHr-5" edge="1">
          <mxGeometry width="50" height="50" relative="1" as="geometry">
            <mxPoint x="3385.52" y="1191.75" as="sourcePoint" />
            <mxPoint x="3385.52" y="1219.75" as="targetPoint" />
          </mxGeometry>
        </mxCell>
        <mxCell id="FEyQUM1H9zEpQc9rAPHr-10" value="" style="endArrow=blockThin;html=1;rounded=0;strokeColor=#000033;strokeWidth=2;endFill=1;exitX=1;exitY=0.5;exitDx=0;exitDy=0;endSize=4;" parent="1" source="FEyQUM1H9zEpQc9rAPHr-1" edge="1">
          <mxGeometry width="50" height="50" relative="1" as="geometry">
            <mxPoint x="3312.52" y="1176.5" as="sourcePoint" />
            <mxPoint x="3414.52" y="1224.5" as="targetPoint" />
          </mxGeometry>
        </mxCell>
        <mxCell id="FEyQUM1H9zEpQc9rAPHr-11" value="" style="endArrow=blockThin;html=1;rounded=0;strokeColor=#003300;strokeWidth=2;endFill=1;exitX=1;exitY=0.5;exitDx=0;exitDy=0;endSize=4;entryX=0;entryY=0.5;entryDx=0;entryDy=0;" parent="1" source="FEyQUM1H9zEpQc9rAPHr-2" target="FEyQUM1H9zEpQc9rAPHr-6" edge="1">
          <mxGeometry width="50" height="50" relative="1" as="geometry">
            <mxPoint x="3312.52" y="1176.5" as="sourcePoint" />
            <mxPoint x="3425.52" y="1244.5" as="targetPoint" />
          </mxGeometry>
        </mxCell>
        <mxCell id="FEyQUM1H9zEpQc9rAPHr-12" value="" style="endArrow=blockThin;html=1;rounded=0;strokeColor=#003300;strokeWidth=2;endFill=1;exitX=1;exitY=0.5;exitDx=0;exitDy=0;endSize=4;" parent="1" source="FEyQUM1H9zEpQc9rAPHr-2" edge="1">
          <mxGeometry width="50" height="50" relative="1" as="geometry">
            <mxPoint x="3312.52" y="1210.5" as="sourcePoint" />
            <mxPoint x="3414.52" y="1229.5" as="targetPoint" />
          </mxGeometry>
        </mxCell>
        <mxCell id="FEyQUM1H9zEpQc9rAPHr-13" value="" style="endArrow=blockThin;html=1;rounded=0;strokeColor=#190033;strokeWidth=2;endFill=1;exitX=1;exitY=0.5;exitDx=0;exitDy=0;endSize=4;entryX=0;entryY=0.5;entryDx=0;entryDy=0;" parent="1" source="FEyQUM1H9zEpQc9rAPHr-3" target="FEyQUM1H9zEpQc9rAPHr-7" edge="1">
          <mxGeometry width="50" height="50" relative="1" as="geometry">
            <mxPoint x="3312.52" y="1210.5" as="sourcePoint" />
            <mxPoint x="3425.52" y="1210.5" as="targetPoint" />
          </mxGeometry>
        </mxCell>
        <mxCell id="FEyQUM1H9zEpQc9rAPHr-14" value="" style="endArrow=blockThin;html=1;rounded=0;strokeColor=#190033;strokeWidth=2;endFill=1;exitX=1;exitY=0.5;exitDx=0;exitDy=0;endSize=4;entryX=0;entryY=0.75;entryDx=0;entryDy=0;" parent="1" source="FEyQUM1H9zEpQc9rAPHr-3" target="FEyQUM1H9zEpQc9rAPHr-5" edge="1">
          <mxGeometry width="50" height="50" relative="1" as="geometry">
            <mxPoint x="3312.52" y="1244.5" as="sourcePoint" />
            <mxPoint x="3425.52" y="1244.5" as="targetPoint" />
          </mxGeometry>
        </mxCell>
        <mxCell id="FEyQUM1H9zEpQc9rAPHr-15" value="" style="endArrow=blockThin;html=1;rounded=0;strokeColor=#660066;strokeWidth=2;endFill=1;exitX=1;exitY=0.5;exitDx=0;exitDy=0;endSize=4;entryX=0;entryY=0.75;entryDx=0;entryDy=0;" parent="1" source="FEyQUM1H9zEpQc9rAPHr-4" target="FEyQUM1H9zEpQc9rAPHr-7" edge="1">
          <mxGeometry width="50" height="50" relative="1" as="geometry">
            <mxPoint x="3312.52" y="1244.5" as="sourcePoint" />
            <mxPoint x="3425.52" y="1244.5" as="targetPoint" />
          </mxGeometry>
        </mxCell>
        <mxCell id="FEyQUM1H9zEpQc9rAPHr-16" value="" style="endArrow=blockThin;html=1;rounded=0;strokeColor=#660066;strokeWidth=2;endFill=1;exitX=1;exitY=0.5;exitDx=0;exitDy=0;endSize=4;entryX=0;entryY=0.75;entryDx=0;entryDy=0;" parent="1" source="FEyQUM1H9zEpQc9rAPHr-4" target="FEyQUM1H9zEpQc9rAPHr-6" edge="1">
          <mxGeometry width="50" height="50" relative="1" as="geometry">
            <mxPoint x="3311.52" y="1278.5" as="sourcePoint" />
            <mxPoint x="3425.52" y="1251.5" as="targetPoint" />
          </mxGeometry>
        </mxCell>
        <mxCell id="FEyQUM1H9zEpQc9rAPHr-1" value="&lt;font face=&quot;Comic Sans MS&quot;&gt;&lt;b&gt;Edward&lt;/b&gt;&lt;/font&gt;" style="rounded=1;whiteSpace=wrap;html=1;fillColor=#007FFF;strokeColor=#000000;fontColor=#FFFFFF;arcSize=10;" parent="1" vertex="1">
          <mxGeometry x="3212.52" y="1152" width="90" height="29.5" as="geometry" />
        </mxCell>
        <mxCell id="FEyQUM1H9zEpQc9rAPHr-2" value="&lt;font face=&quot;Comic Sans MS&quot;&gt;&lt;b&gt;Ann&lt;/b&gt;&lt;/font&gt;" style="rounded=1;whiteSpace=wrap;html=1;fillColor=#80FF00;strokeColor=#000000;fontColor=#000000;arcSize=10;" parent="1" vertex="1">
          <mxGeometry x="3212.52" y="1185.75" width="90" height="29.5" as="geometry" />
        </mxCell>
        <mxCell id="FEyQUM1H9zEpQc9rAPHr-3" value="&lt;font face=&quot;Comic Sans MS&quot;&gt;&lt;b&gt;Jack&lt;/b&gt;&lt;/font&gt;" style="rounded=1;whiteSpace=wrap;html=1;fillColor=#7F00FF;strokeColor=#000000;fontColor=#FFFFFF;arcSize=10;" parent="1" vertex="1">
          <mxGeometry x="3212.52" y="1219.75" width="90" height="29.5" as="geometry" />
        </mxCell>
        <mxCell id="FEyQUM1H9zEpQc9rAPHr-4" value="&lt;font face=&quot;Comic Sans MS&quot;&gt;&lt;b&gt;Liza&lt;/b&gt;&lt;/font&gt;" style="rounded=1;whiteSpace=wrap;html=1;fillColor=#FF99FF;strokeColor=#000000;fontColor=#000000;arcSize=10;" parent="1" vertex="1">
          <mxGeometry x="3212.52" y="1253.5" width="90" height="29.5" as="geometry" />
        </mxCell>
        <mxCell id="FEyQUM1H9zEpQc9rAPHr-5" value="&lt;font face=&quot;Comic Sans MS&quot;&gt;&lt;b&gt;Banana&lt;/b&gt;&lt;/font&gt;" style="rounded=1;whiteSpace=wrap;html=1;fillColor=#FFFF00;strokeColor=#000000;fontColor=#000000;arcSize=10;" parent="1" vertex="1">
          <mxGeometry x="3415.52" y="1152" width="90" height="29.5" as="geometry" />
        </mxCell>
        <mxCell id="FEyQUM1H9zEpQc9rAPHr-6" value="&lt;font face=&quot;Comic Sans MS&quot;&gt;&lt;b&gt;Apple&lt;/b&gt;&lt;/font&gt;" style="rounded=1;whiteSpace=wrap;html=1;fillColor=#FFFF00;strokeColor=#000000;fontColor=#000000;arcSize=10;" parent="1" vertex="1">
          <mxGeometry x="3415.52" y="1185.75" width="90" height="29.5" as="geometry" />
        </mxCell>
        <mxCell id="FEyQUM1H9zEpQc9rAPHr-7" value="&lt;font face=&quot;Comic Sans MS&quot;&gt;&lt;b&gt;Grapes&lt;/b&gt;&lt;/font&gt;" style="rounded=1;whiteSpace=wrap;html=1;fillColor=#FFFF00;strokeColor=#000000;fontColor=#000000;arcSize=10;" parent="1" vertex="1">
          <mxGeometry x="3415.52" y="1219.75" width="90" height="29.5" as="geometry" />
        </mxCell>
        <mxCell id="FEyQUM1H9zEpQc9rAPHr-8" value="&lt;font face=&quot;Comic Sans MS&quot;&gt;&lt;b&gt;Orange&lt;/b&gt;&lt;/font&gt;" style="rounded=1;whiteSpace=wrap;html=1;fillColor=#FFFF00;strokeColor=#000000;fontColor=#000000;arcSize=10;" parent="1" vertex="1">
          <mxGeometry x="3415.52" y="1253.5" width="90" height="29.5" as="geometry" />
        </mxCell>
        <mxCell id="FEyQUM1H9zEpQc9rAPHr-17" value="" style="rounded=1;whiteSpace=wrap;html=1;fillColor=none;strokeColor=none;fontColor=#000000;arcSize=4;spacingBottom=0;spacing=5;" parent="1" vertex="1">
          <mxGeometry x="3080" y="1150" width="114.79" height="133" as="geometry" />
        </mxCell>
        <mxCell id="FEyQUM1H9zEpQc9rAPHr-19" value="" style="rounded=1;whiteSpace=wrap;html=1;fillColor=none;strokeColor=none;fontColor=#000000;arcSize=4;spacingBottom=0;spacing=5;" parent="1" vertex="1">
          <mxGeometry x="3525.84" y="1152" width="114.79" height="133" as="geometry" />
        </mxCell>
        <mxCell id="HtunkDSxhIQNC_XrT3Kh-1" value="&lt;b style=&quot;font-family: &amp;quot;Comic Sans MS&amp;quot;; font-size: 15px;&quot;&gt;{1, 2, 3, 4, 5, 6}&lt;/b&gt;" style="rounded=1;whiteSpace=wrap;html=1;fillColor=#FFCC99;strokeColor=none;" parent="1" vertex="1">
          <mxGeometry x="3072.35" y="1565" width="180" height="30" as="geometry" />
        </mxCell>
        <mxCell id="HtunkDSxhIQNC_XrT3Kh-2" value="&lt;b style=&quot;font-family: &amp;quot;Comic Sans MS&amp;quot;; font-size: 15px;&quot;&gt;Finite Set&lt;/b&gt;" style="rounded=1;whiteSpace=wrap;html=1;fillColor=#FFCC99;strokeColor=none;" parent="1" vertex="1">
          <mxGeometry x="3072.35" y="1528" width="180" height="30" as="geometry" />
        </mxCell>
        <mxCell id="HtunkDSxhIQNC_XrT3Kh-3" value="&lt;b style=&quot;font-family: &amp;quot;Comic Sans MS&amp;quot;; font-size: 15px;&quot;&gt;{ x | x &amp;gt; 10, x&amp;nbsp;&lt;/b&gt;&lt;span style=&quot;font-size: 20px; text-align: start;&quot;&gt;&lt;font style=&quot;&quot; face=&quot;Comic Sans MS&quot;&gt;âˆˆ&lt;/font&gt;&lt;/span&gt;&lt;b style=&quot;font-family: &amp;quot;Comic Sans MS&amp;quot;; font-size: 15px;&quot;&gt;&amp;nbsp;Z}&lt;/b&gt;" style="rounded=1;whiteSpace=wrap;html=1;fillColor=#B3FF66;strokeColor=none;spacingBottom=2;" parent="1" vertex="1">
          <mxGeometry x="3301.35" y="1565" width="180" height="30" as="geometry" />
        </mxCell>
        <mxCell id="HtunkDSxhIQNC_XrT3Kh-4" value="&lt;b style=&quot;font-family: &amp;quot;Comic Sans MS&amp;quot;; font-size: 15px;&quot;&gt;Infinite Set&lt;/b&gt;" style="rounded=1;whiteSpace=wrap;html=1;fillColor=#B3FF66;strokeColor=none;" parent="1" vertex="1">
          <mxGeometry x="3301.35" y="1528" width="180" height="30" as="geometry" />
        </mxCell>
        <mxCell id="HtunkDSxhIQNC_XrT3Kh-5" value="&lt;b style=&quot;font-family: &amp;quot;Comic Sans MS&amp;quot;; font-size: 15px;&quot;&gt;{ }&lt;/b&gt;" style="rounded=1;whiteSpace=wrap;html=1;fillColor=#FFFF33;strokeColor=none;" parent="1" vertex="1">
          <mxGeometry x="3530" y="1565" width="180" height="30" as="geometry" />
        </mxCell>
        <mxCell id="HtunkDSxhIQNC_XrT3Kh-6" value="&lt;b style=&quot;font-family: &amp;quot;Comic Sans MS&amp;quot;; font-size: 15px;&quot;&gt;Empty Set&lt;/b&gt;" style="rounded=1;whiteSpace=wrap;html=1;fillColor=#FFFF33;strokeColor=none;" parent="1" vertex="1">
          <mxGeometry x="3530" y="1528" width="180" height="30" as="geometry" />
        </mxCell>
        <mxCell id="HtunkDSxhIQNC_XrT3Kh-7" value="&lt;b style=&quot;font-family: &amp;quot;Comic Sans MS&amp;quot;; font-size: 15px;&quot;&gt;M = { Monash }&lt;/b&gt;" style="rounded=1;whiteSpace=wrap;html=1;fillColor=#0066CC;strokeColor=none;fontColor=#FFFFFF;" parent="1" vertex="1">
          <mxGeometry x="3072.35" y="1702" width="180" height="30" as="geometry" />
        </mxCell>
        <mxCell id="HtunkDSxhIQNC_XrT3Kh-8" value="&lt;font face=&quot;Comic Sans MS&quot;&gt;&lt;span style=&quot;font-size: 15px;&quot;&gt;&lt;b&gt;Singleton Set&lt;/b&gt;&lt;/span&gt;&lt;/font&gt;" style="rounded=1;whiteSpace=wrap;html=1;fillColor=#0066CC;strokeColor=none;fontColor=#FFFFFF;" parent="1" vertex="1">
          <mxGeometry x="3072.35" y="1665" width="180" height="30" as="geometry" />
        </mxCell>
        <mxCell id="HtunkDSxhIQNC_XrT3Kh-9" value="&lt;font face=&quot;Comic Sans MS&quot;&gt;&lt;span style=&quot;font-size: 15px;&quot;&gt;&lt;b&gt;A={0,2}&amp;nbsp; &amp;nbsp; B={2,0}&lt;/b&gt;&lt;/span&gt;&lt;/font&gt;" style="rounded=1;whiteSpace=wrap;html=1;fillColor=#66FFFF;strokeColor=none;" parent="1" vertex="1">
          <mxGeometry x="3301.35" y="1702" width="180" height="30" as="geometry" />
        </mxCell>
        <mxCell id="HtunkDSxhIQNC_XrT3Kh-10" value="&lt;b style=&quot;font-family: &amp;quot;Comic Sans MS&amp;quot;; font-size: 15px;&quot;&gt;Equal Set&lt;/b&gt;" style="rounded=1;whiteSpace=wrap;html=1;fillColor=#66FFFF;strokeColor=none;" parent="1" vertex="1">
          <mxGeometry x="3301.35" y="1665" width="180" height="30" as="geometry" />
        </mxCell>
        <mxCell id="HtunkDSxhIQNC_XrT3Kh-14" value="" style="endArrow=none;html=1;rounded=0;strokeColor=#333333;strokeWidth=2;endFill=0;endSize=4;" parent="1" edge="1">
          <mxGeometry width="50" height="50" relative="1" as="geometry">
            <mxPoint x="3074" y="1460" as="sourcePoint" />
            <mxPoint x="3710" y="1461" as="targetPoint" />
          </mxGeometry>
        </mxCell>
        <mxCell id="HtunkDSxhIQNC_XrT3Kh-15" value="&lt;b style=&quot;font-family: &amp;quot;Comic Sans MS&amp;quot;; font-size: 15px;&quot;&gt;Enumerated Form&lt;/b&gt;" style="rounded=1;whiteSpace=wrap;html=1;fillColor=#CC99FF;strokeColor=none;" parent="1" vertex="1">
          <mxGeometry x="3073.35" y="1371" width="180" height="30" as="geometry" />
        </mxCell>
        <mxCell id="HtunkDSxhIQNC_XrT3Kh-16" value="&lt;b&gt;&lt;font style=&quot;font-size: 15px;&quot; face=&quot;Comic Sans MS&quot;&gt;P = {&lt;span style=&quot;outline: none; scrollbar-color: rgba(80, 40, 140, 0.5) rgba(0, 0, 0, 0); border-color: currentcolor; text-align: start; text-wrap: nowrap;&quot; class=&quot;mord&quot;&gt;2&lt;/span&gt;&lt;span style=&quot;outline: none; scrollbar-color: rgba(80, 40, 140, 0.5) rgba(0, 0, 0, 0); border-color: currentcolor; text-align: start; text-wrap: nowrap;&quot; class=&quot;mpunct&quot;&gt;,&lt;/span&gt;&lt;span style=&quot;outline: none; scrollbar-color: rgba(80, 40, 140, 0.5) rgba(0, 0, 0, 0); border-color: currentcolor; display: inline-block; text-align: start; text-wrap: nowrap; margin-right: 0.1667em;&quot; class=&quot;mspace&quot;&gt;&lt;/span&gt;&lt;span style=&quot;outline: none; scrollbar-color: rgba(80, 40, 140, 0.5) rgba(0, 0, 0, 0); border-color: currentcolor; text-align: start; text-wrap: nowrap;&quot; class=&quot;mord&quot;&gt;3&lt;/span&gt;&lt;span style=&quot;outline: none; scrollbar-color: rgba(80, 40, 140, 0.5) rgba(0, 0, 0, 0); border-color: currentcolor; text-align: start; text-wrap: nowrap;&quot; class=&quot;mpunct&quot;&gt;,&lt;/span&gt;&lt;span style=&quot;outline: none; scrollbar-color: rgba(80, 40, 140, 0.5) rgba(0, 0, 0, 0); border-color: currentcolor; display: inline-block; text-align: start; text-wrap: nowrap; margin-right: 0.1667em;&quot; class=&quot;mspace&quot;&gt;&lt;/span&gt;&lt;span style=&quot;outline: none; scrollbar-color: rgba(80, 40, 140, 0.5) rgba(0, 0, 0, 0); border-color: currentcolor; text-align: start; text-wrap: nowrap;&quot; class=&quot;mord&quot;&gt;5&lt;/span&gt;&lt;span style=&quot;outline: none; scrollbar-color: rgba(80, 40, 140, 0.5) rgba(0, 0, 0, 0); border-color: currentcolor; text-align: start; text-wrap: nowrap;&quot; class=&quot;mpunct&quot;&gt;,&lt;/span&gt;&lt;span style=&quot;outline: none; scrollbar-color: rgba(80, 40, 140, 0.5) rgba(0, 0, 0, 0); border-color: currentcolor; display: inline-block; text-align: start; text-wrap: nowrap; margin-right: 0.1667em;&quot; class=&quot;mspace&quot;&gt;&lt;/span&gt;&lt;span style=&quot;outline: none; scrollbar-color: rgba(80, 40, 140, 0.5) rgba(0, 0, 0, 0); border-color: currentcolor; text-align: start; text-wrap: nowrap;&quot; class=&quot;mord&quot;&gt;7&lt;/span&gt;&lt;span style=&quot;outline: none; scrollbar-color: rgba(80, 40, 140, 0.5) rgba(0, 0, 0, 0); border-color: currentcolor; text-align: start; text-wrap: nowrap;&quot; class=&quot;mpunct&quot;&gt;,&lt;/span&gt;&lt;span style=&quot;outline: none; scrollbar-color: rgba(80, 40, 140, 0.5) rgba(0, 0, 0, 0); border-color: currentcolor; display: inline-block; text-align: start; text-wrap: nowrap; margin-right: 0.1667em;&quot; class=&quot;mspace&quot;&gt;&lt;/span&gt;&lt;span style=&quot;outline: none; scrollbar-color: rgba(80, 40, 140, 0.5) rgba(0, 0, 0, 0); border-color: currentcolor; text-align: start; text-wrap: nowrap;&quot; class=&quot;mord&quot;&gt;11&lt;/span&gt;&lt;span style=&quot;outline: none; scrollbar-color: rgba(80, 40, 140, 0.5) rgba(0, 0, 0, 0); border-color: currentcolor; text-align: start; text-wrap: nowrap;&quot; class=&quot;mpunct&quot;&gt;,&lt;/span&gt;&lt;span style=&quot;outline: none; scrollbar-color: rgba(80, 40, 140, 0.5) rgba(0, 0, 0, 0); border-color: currentcolor; display: inline-block; text-align: start; text-wrap: nowrap; margin-right: 0.1667em;&quot; class=&quot;mspace&quot;&gt;&lt;/span&gt;&lt;span style=&quot;outline: none; scrollbar-color: rgba(80, 40, 140, 0.5) rgba(0, 0, 0, 0); border-color: currentcolor; text-align: start; text-wrap: nowrap;&quot; class=&quot;mord&quot;&gt;13&lt;/span&gt;&lt;span style=&quot;outline: none; scrollbar-color: rgba(80, 40, 140, 0.5) rgba(0, 0, 0, 0); border-color: currentcolor; text-align: start; text-wrap: nowrap;&quot; class=&quot;mpunct&quot;&gt;,&lt;/span&gt;&lt;span style=&quot;outline: none; scrollbar-color: rgba(80, 40, 140, 0.5) rgba(0, 0, 0, 0); border-color: currentcolor; display: inline-block; text-align: start; text-wrap: nowrap; margin-right: 0.1667em;&quot; class=&quot;mspace&quot;&gt;&lt;/span&gt;&lt;span style=&quot;outline: none; scrollbar-color: rgba(80, 40, 140, 0.5) rgba(0, 0, 0, 0); border-color: currentcolor; text-align: start; text-wrap: nowrap;&quot; class=&quot;mord&quot;&gt;17&lt;/span&gt;&lt;span style=&quot;outline: none; scrollbar-color: rgba(80, 40, 140, 0.5) rgba(0, 0, 0, 0); border-color: currentcolor; text-align: start; text-wrap: nowrap;&quot; class=&quot;mpunct&quot;&gt;,&lt;/span&gt;&lt;span style=&quot;outline: none; scrollbar-color: rgba(80, 40, 140, 0.5) rgba(0, 0, 0, 0); border-color: currentcolor; display: inline-block; text-align: start; text-wrap: nowrap; margin-right: 0.1667em;&quot; class=&quot;mspace&quot;&gt;&lt;/span&gt;&lt;span style=&quot;outline: none; scrollbar-color: rgba(80, 40, 140, 0.5) rgba(0, 0, 0, 0); border-color: currentcolor; text-align: start; text-wrap: nowrap;&quot; class=&quot;mord&quot;&gt;19&lt;/span&gt;}&lt;/font&gt;&lt;/b&gt;" style="rounded=1;whiteSpace=wrap;html=1;fillColor=#E5CCFF;strokeColor=none;" parent="1" vertex="1">
          <mxGeometry x="3260" y="1371" width="450" height="30" as="geometry" />
        </mxCell>
        <mxCell id="HtunkDSxhIQNC_XrT3Kh-17" value="&lt;font face=&quot;Comic Sans MS&quot;&gt;&lt;span style=&quot;font-size: 15px;&quot;&gt;&lt;b&gt;Set Builder Form&lt;/b&gt;&lt;/span&gt;&lt;/font&gt;" style="rounded=1;whiteSpace=wrap;html=1;fillColor=#CC99FF;strokeColor=none;" parent="1" vertex="1">
          <mxGeometry x="3073.35" y="1411" width="180" height="30" as="geometry" />
        </mxCell>
        <mxCell id="HtunkDSxhIQNC_XrT3Kh-18" value="&lt;div style=&quot;text-align: start;&quot;&gt;&lt;b&gt;&lt;font style=&quot;font-size: 15px;&quot;&gt;&lt;font&gt;&lt;span style=&quot;background-color: initial;&quot;&gt;&lt;font style=&quot;&quot; face=&quot;Comic Sans MS&quot;&gt;P =&amp;nbsp;&lt;/font&gt;&lt;/span&gt;&lt;span style=&quot;background-color: initial; font-family: &amp;quot;Comic Sans MS&amp;quot;;&quot;&gt;&lt;font style=&quot;&quot;&gt;{ x | 2 =&amp;lt; x &amp;lt; 20, x&lt;/font&gt; &lt;/span&gt;&lt;span style=&quot;background-color: initial; font-family: &amp;quot;Comic Sans MS&amp;quot;;&quot;&gt;(Is a Prime Number)&lt;/span&gt;&lt;/font&gt;&lt;span style=&quot;background-color: initial; font-family: &amp;quot;Comic Sans MS&amp;quot;;&quot;&gt;}&lt;/span&gt;&lt;/font&gt;&lt;/b&gt;&lt;/div&gt;" style="rounded=1;whiteSpace=wrap;html=1;fillColor=#E5CCFF;strokeColor=none;" parent="1" vertex="1">
          <mxGeometry x="3260" y="1411" width="450" height="30" as="geometry" />
        </mxCell>
        <mxCell id="EdPjmC5KVBf4B7WpG1KR-1" value="&lt;font face=&quot;Comic Sans MS&quot;&gt;&lt;b&gt;The Number of Elements are Finite.&lt;/b&gt;&lt;/font&gt;" style="rounded=1;whiteSpace=wrap;html=1;fillColor=#FFCC99;strokeColor=none;fontSize=13;" parent="1" vertex="1">
          <mxGeometry x="3072.35" y="1603" width="180" height="38" as="geometry" />
        </mxCell>
        <mxCell id="EdPjmC5KVBf4B7WpG1KR-2" value="&lt;b style=&quot;font-family: &amp;quot;Comic Sans MS&amp;quot;;&quot;&gt;The Number of Elements are Infinite.&lt;/b&gt;" style="rounded=1;whiteSpace=wrap;html=1;fillColor=#B3FF66;strokeColor=none;fontSize=13;" parent="1" vertex="1">
          <mxGeometry x="3301.35" y="1603" width="180" height="38" as="geometry" />
        </mxCell>
        <mxCell id="EdPjmC5KVBf4B7WpG1KR-3" value="&lt;font face=&quot;Comic Sans MS&quot;&gt;&lt;b&gt;&lt;span style=&quot;color: rgb(34, 34, 34); text-align: start; white-space-collapse: preserve;&quot;&gt;The symbols Ã˜ and {} both denote Null Sets&lt;/span&gt;.&lt;/b&gt;&lt;/font&gt;" style="rounded=1;whiteSpace=wrap;html=1;fillColor=#FFFF33;strokeColor=none;fontSize=13;" parent="1" vertex="1">
          <mxGeometry x="3530" y="1603" width="180" height="38" as="geometry" />
        </mxCell>
        <mxCell id="EdPjmC5KVBf4B7WpG1KR-4" value="&lt;b style=&quot;font-family: &amp;quot;Comic Sans MS&amp;quot;;&quot;&gt;The Set has only One Element.&lt;/b&gt;" style="rounded=1;whiteSpace=wrap;html=1;fillColor=#0066CC;strokeColor=none;fontColor=#FFFFFF;fontSize=13;" parent="1" vertex="1">
          <mxGeometry x="3073.35" y="1738" width="180" height="38" as="geometry" />
        </mxCell>
        <mxCell id="EdPjmC5KVBf4B7WpG1KR-6" value="&lt;b style=&quot;font-size: 13px; font-family: &amp;quot;Comic Sans MS&amp;quot;;&quot;&gt;Two Sets are Equal if they have the Same Elements.&lt;/b&gt;" style="rounded=1;whiteSpace=wrap;html=1;fillColor=#66FFFF;strokeColor=none;" parent="1" vertex="1">
          <mxGeometry x="3302.52" y="1738" width="180" height="38" as="geometry" />
        </mxCell>
        <mxCell id="EdPjmC5KVBf4B7WpG1KR-8" value="&lt;font style=&quot;font-size: 16px;&quot; face=&quot;Comic Sans MS&quot;&gt;&lt;b style=&quot;&quot;&gt;Types of Sets&lt;/b&gt;&lt;/font&gt;" style="rounded=1;whiteSpace=wrap;html=1;fillColor=#000033;strokeColor=none;fontColor=#FFFFFF;arcSize=10;" parent="1" vertex="1">
          <mxGeometry x="3270" y="1480" width="230" height="29.5" as="geometry" />
        </mxCell>
        <mxCell id="EdPjmC5KVBf4B7WpG1KR-9" value="&lt;font face=&quot;Comic Sans MS&quot;&gt;&lt;span style=&quot;font-size: 15px;&quot;&gt;&lt;b&gt;A={1, 2}&amp;nbsp; B={Dog,Cat}&lt;/b&gt;&lt;/span&gt;&lt;/font&gt;" style="rounded=1;whiteSpace=wrap;html=1;fillColor=#E5CCFF;strokeColor=none;" parent="1" vertex="1">
          <mxGeometry x="3530" y="1702" width="180" height="30" as="geometry" />
        </mxCell>
        <mxCell id="EdPjmC5KVBf4B7WpG1KR-10" value="&lt;font face=&quot;Comic Sans MS&quot;&gt;&lt;span style=&quot;font-size: 15px;&quot;&gt;&lt;b&gt;Equivalent Set&lt;/b&gt;&lt;/span&gt;&lt;/font&gt;" style="rounded=1;whiteSpace=wrap;html=1;fillColor=#E5CCFF;strokeColor=none;" parent="1" vertex="1">
          <mxGeometry x="3530" y="1665" width="180" height="30" as="geometry" />
        </mxCell>
        <mxCell id="EdPjmC5KVBf4B7WpG1KR-11" value="&lt;b style=&quot;font-size: 13px; font-family: &amp;quot;Comic Sans MS&amp;quot;;&quot;&gt;Two Sets with the Same Number of Elements.&lt;/b&gt;" style="rounded=1;whiteSpace=wrap;html=1;fillColor=#E5CCFF;strokeColor=none;" parent="1" vertex="1">
          <mxGeometry x="3531.17" y="1738" width="180" height="38" as="geometry" />
        </mxCell>
        <mxCell id="EdPjmC5KVBf4B7WpG1KR-13" value="&lt;font face=&quot;Comic Sans MS&quot;&gt;&lt;span style=&quot;font-size: 15px;&quot;&gt;&lt;b&gt;A={1, 2}&amp;nbsp; B={Dog,Cat}&amp;nbsp; U=&lt;/b&gt;&lt;/span&gt;&lt;/font&gt;&lt;b style=&quot;font-family: &amp;quot;Comic Sans MS&amp;quot;; font-size: 15px;&quot;&gt;{1, 2, Dog, Cat}&lt;/b&gt;" style="rounded=1;whiteSpace=wrap;html=1;fillColor=#FF99FF;strokeColor=none;" parent="1" vertex="1">
          <mxGeometry x="3215" y="1837" width="340" height="30" as="geometry" />
        </mxCell>
        <mxCell id="EdPjmC5KVBf4B7WpG1KR-14" value="&lt;font face=&quot;Comic Sans MS&quot;&gt;&lt;span style=&quot;font-size: 15px;&quot;&gt;&lt;b&gt;Universal Set&lt;/b&gt;&lt;/span&gt;&lt;/font&gt;" style="rounded=1;whiteSpace=wrap;html=1;fillColor=#FF99FF;strokeColor=none;" parent="1" vertex="1">
          <mxGeometry x="3215" y="1800" width="340" height="30" as="geometry" />
        </mxCell>
        <mxCell id="EdPjmC5KVBf4B7WpG1KR-15" value="&lt;b style=&quot;font-size: 13px; font-family: &amp;quot;Comic Sans MS&amp;quot;;&quot;&gt;A Set that contains all the Sets under Consideration&lt;/b&gt;" style="rounded=1;whiteSpace=wrap;html=1;fillColor=#FF99FF;strokeColor=none;spacingBottom=5;spacing=3;" parent="1" vertex="1">
          <mxGeometry x="3215" y="1873" width="340" height="38" as="geometry" />
        </mxCell>
        <mxCell id="UcyLIDLAC5yHybt2mTLH-1" value="" style="endArrow=none;html=1;rounded=0;strokeColor=#333333;strokeWidth=2;endFill=0;endSize=4;" parent="1" edge="1">
          <mxGeometry width="50" height="50" relative="1" as="geometry">
            <mxPoint x="3072.35" y="1940" as="sourcePoint" />
            <mxPoint x="3708.35" y="1941" as="targetPoint" />
          </mxGeometry>
        </mxCell>
        <mxCell id="UcyLIDLAC5yHybt2mTLH-3" value="" style="rounded=1;whiteSpace=wrap;html=1;fillColor=#CCFFFF;strokeColor=none;arcSize=3;" parent="1" vertex="1">
          <mxGeometry x="3072.35" y="1961" width="636.65" height="163" as="geometry" />
        </mxCell>
        <mxCell id="UcyLIDLAC5yHybt2mTLH-4" value="&lt;b&gt;&lt;font style=&quot;font-size: 13px;&quot; face=&quot;Comic Sans MS&quot;&gt;&lt;span style=&quot;outline: none; scrollbar-color: rgba(80, 40, 140, 0.5) rgba(0, 0, 0, 0); border-color: currentcolor; position: relative; display: inline-block; text-wrap: nowrap; width: min-content; color: rgb(34, 34, 34); text-align: start;&quot; class=&quot;base&quot;&gt;&lt;span style=&quot;outline: none; scrollbar-color: rgba(80, 40, 140, 0.5) rgba(0, 0, 0, 0); border-color: currentcolor;&quot; class=&quot;mrel&quot;&gt;&lt;i&gt;A&amp;nbsp;&lt;/i&gt;= {&lt;/span&gt;&lt;span style=&quot;outline: none; scrollbar-color: rgba(80, 40, 140, 0.5) rgba(0, 0, 0, 0); border-color: currentcolor; display: inline-block; margin-right: 0.2778em;&quot; class=&quot;mspace&quot;&gt;&lt;/span&gt;&lt;/span&gt;&lt;span style=&quot;outline: none; scrollbar-color: rgba(80, 40, 140, 0.5) rgba(0, 0, 0, 0); border-color: currentcolor; position: relative; display: inline-block; text-wrap: nowrap; width: min-content; color: rgb(34, 34, 34); text-align: start;&quot; class=&quot;base&quot;&gt;&lt;span style=&quot;outline: none; scrollbar-color: rgba(80, 40, 140, 0.5) rgba(0, 0, 0, 0); border-color: currentcolor; display: inline-block; height: 0.8389em; vertical-align: -0.1944em;&quot; class=&quot;strut&quot;&gt;&lt;/span&gt;&lt;span style=&quot;outline: none; scrollbar-color: rgba(80, 40, 140, 0.5) rgba(0, 0, 0, 0); border-color: currentcolor;&quot; class=&quot;mord&quot;&gt;&lt;span style=&quot;outline: none; scrollbar-color: rgba(80, 40, 140, 0.5) rgba(0, 0, 0, 0); border-color: currentcolor;&quot; class=&quot;mord&quot;&gt;1&lt;/span&gt;&lt;span style=&quot;outline: none; scrollbar-color: rgba(80, 40, 140, 0.5) rgba(0, 0, 0, 0); border-color: currentcolor;&quot; class=&quot;mpunct&quot;&gt;,&lt;/span&gt;&lt;span style=&quot;outline: none; scrollbar-color: rgba(80, 40, 140, 0.5) rgba(0, 0, 0, 0); border-color: currentcolor; display: inline-block; margin-right: 0.1667em;&quot; class=&quot;mspace&quot;&gt;&lt;/span&gt;&lt;span style=&quot;outline: none; scrollbar-color: rgba(80, 40, 140, 0.5) rgba(0, 0, 0, 0); border-color: currentcolor;&quot; class=&quot;mord&quot;&gt;2&lt;/span&gt;&lt;span style=&quot;outline: none; scrollbar-color: rgba(80, 40, 140, 0.5) rgba(0, 0, 0, 0); border-color: currentcolor;&quot; class=&quot;mpunct&quot;&gt;,&lt;/span&gt;&lt;span style=&quot;outline: none; scrollbar-color: rgba(80, 40, 140, 0.5) rgba(0, 0, 0, 0); border-color: currentcolor; display: inline-block; margin-right: 0.1667em;&quot; class=&quot;mspace&quot;&gt;&lt;/span&gt;&lt;span style=&quot;outline: none; scrollbar-color: rgba(80, 40, 140, 0.5) rgba(0, 0, 0, 0); border-color: currentcolor;&quot; class=&quot;mord&quot;&gt;3, 4, 5, 6 }&lt;/span&gt;&lt;/span&gt;&lt;/span&gt;&lt;/font&gt;&lt;/b&gt;" style="rounded=1;whiteSpace=wrap;html=1;fillColor=#66FFFF;strokeColor=none;arcSize=10;" parent="1" vertex="1">
          <mxGeometry x="3080" y="2002" width="160" height="28" as="geometry" />
        </mxCell>
        <mxCell id="UcyLIDLAC5yHybt2mTLH-2" value="&lt;font style=&quot;font-size: 15px;&quot; face=&quot;Comic Sans MS&quot;&gt;&lt;b style=&quot;&quot;&gt;Subset &amp;amp; Proper Subset&lt;/b&gt;&lt;/font&gt;" style="rounded=1;whiteSpace=wrap;html=1;fillColor=#000033;strokeColor=none;fontColor=#FFFFFF;arcSize=10;" parent="1" vertex="1">
          <mxGeometry x="3079.52" y="1968" width="240" height="28" as="geometry" />
        </mxCell>
        <mxCell id="UcyLIDLAC5yHybt2mTLH-6" value="&lt;b&gt;&lt;font style=&quot;font-size: 13px;&quot; face=&quot;Comic Sans MS&quot;&gt;&lt;span style=&quot;outline: none; scrollbar-color: rgba(80, 40, 140, 0.5) rgba(0, 0, 0, 0); border-color: currentcolor; position: relative; display: inline-block; text-wrap: nowrap; width: min-content; color: rgb(34, 34, 34); text-align: start;&quot; class=&quot;base&quot;&gt;&lt;span style=&quot;outline: none; scrollbar-color: rgba(80, 40, 140, 0.5) rgba(0, 0, 0, 0); border-color: currentcolor;&quot; class=&quot;mrel&quot;&gt;&lt;i&gt;B&amp;nbsp;&lt;/i&gt;= {&lt;/span&gt;&lt;span style=&quot;outline: none; scrollbar-color: rgba(80, 40, 140, 0.5) rgba(0, 0, 0, 0); border-color: currentcolor; display: inline-block; margin-right: 0.2778em;&quot; class=&quot;mspace&quot;&gt;&lt;/span&gt;&lt;/span&gt;&lt;span style=&quot;outline: none; scrollbar-color: rgba(80, 40, 140, 0.5) rgba(0, 0, 0, 0); border-color: currentcolor; position: relative; display: inline-block; text-wrap: nowrap; width: min-content; color: rgb(34, 34, 34); text-align: start;&quot; class=&quot;base&quot;&gt;&lt;span style=&quot;outline: none; scrollbar-color: rgba(80, 40, 140, 0.5) rgba(0, 0, 0, 0); border-color: currentcolor; display: inline-block; height: 0.8389em; vertical-align: -0.1944em;&quot; class=&quot;strut&quot;&gt;&lt;/span&gt;&lt;span style=&quot;outline: none; scrollbar-color: rgba(80, 40, 140, 0.5) rgba(0, 0, 0, 0); border-color: currentcolor;&quot; class=&quot;mord&quot;&gt;&lt;span style=&quot;outline: none; scrollbar-color: rgba(80, 40, 140, 0.5) rgba(0, 0, 0, 0); border-color: currentcolor;&quot; class=&quot;mord&quot;&gt;1&lt;/span&gt;&lt;span style=&quot;outline: none; scrollbar-color: rgba(80, 40, 140, 0.5) rgba(0, 0, 0, 0); border-color: currentcolor;&quot; class=&quot;mpunct&quot;&gt;,&lt;/span&gt;&lt;span style=&quot;outline: none; scrollbar-color: rgba(80, 40, 140, 0.5) rgba(0, 0, 0, 0); border-color: currentcolor; display: inline-block; margin-right: 0.1667em;&quot; class=&quot;mspace&quot;&gt;&lt;/span&gt;&lt;span style=&quot;outline: none; scrollbar-color: rgba(80, 40, 140, 0.5) rgba(0, 0, 0, 0); border-color: currentcolor;&quot; class=&quot;mord&quot;&gt;2&lt;/span&gt;&lt;span style=&quot;outline: none; scrollbar-color: rgba(80, 40, 140, 0.5) rgba(0, 0, 0, 0); border-color: currentcolor;&quot; class=&quot;mpunct&quot;&gt;,&lt;/span&gt;&lt;span style=&quot;outline: none; scrollbar-color: rgba(80, 40, 140, 0.5) rgba(0, 0, 0, 0); border-color: currentcolor; display: inline-block; margin-right: 0.1667em;&quot; class=&quot;mspace&quot;&gt;&lt;/span&gt;&lt;span style=&quot;outline: none; scrollbar-color: rgba(80, 40, 140, 0.5) rgba(0, 0, 0, 0); border-color: currentcolor;&quot; class=&quot;mord&quot;&gt;3 }&lt;/span&gt;&lt;/span&gt;&lt;/span&gt;&lt;/font&gt;&lt;/b&gt;" style="rounded=1;whiteSpace=wrap;html=1;fillColor=#66FFFF;strokeColor=none;arcSize=10;" parent="1" vertex="1">
          <mxGeometry x="3245" y="2002" width="148" height="28" as="geometry" />
        </mxCell>
        <mxCell id="UcyLIDLAC5yHybt2mTLH-7" value="&lt;b&gt;&lt;font style=&quot;font-size: 13px;&quot; face=&quot;Comic Sans MS&quot;&gt;&lt;span style=&quot;outline: none; scrollbar-color: rgba(80, 40, 140, 0.5) rgba(0, 0, 0, 0); border-color: currentcolor; position: relative; display: inline-block; text-wrap: nowrap; width: min-content; color: rgb(34, 34, 34); text-align: start;&quot; class=&quot;base&quot;&gt;&lt;span style=&quot;outline: none; scrollbar-color: rgba(80, 40, 140, 0.5) rgba(0, 0, 0, 0); border-color: currentcolor;&quot; class=&quot;mrel&quot;&gt;&lt;i&gt;C&lt;/i&gt;= {&lt;/span&gt;&lt;span style=&quot;outline: none; scrollbar-color: rgba(80, 40, 140, 0.5) rgba(0, 0, 0, 0); border-color: currentcolor; display: inline-block; margin-right: 0.2778em;&quot; class=&quot;mspace&quot;&gt;&lt;/span&gt;&lt;/span&gt;&lt;span style=&quot;outline: none; scrollbar-color: rgba(80, 40, 140, 0.5) rgba(0, 0, 0, 0); border-color: currentcolor; position: relative; display: inline-block; text-wrap: nowrap; width: min-content; color: rgb(34, 34, 34); text-align: start;&quot; class=&quot;base&quot;&gt;&lt;span style=&quot;outline: none; scrollbar-color: rgba(80, 40, 140, 0.5) rgba(0, 0, 0, 0); border-color: currentcolor; display: inline-block; height: 0.8389em; vertical-align: -0.1944em;&quot; class=&quot;strut&quot;&gt;&lt;/span&gt;&lt;span style=&quot;outline: none; scrollbar-color: rgba(80, 40, 140, 0.5) rgba(0, 0, 0, 0); border-color: currentcolor;&quot; class=&quot;mord&quot;&gt;&lt;span style=&quot;outline: none; scrollbar-color: rgba(80, 40, 140, 0.5) rgba(0, 0, 0, 0); border-color: currentcolor;&quot; class=&quot;mord&quot;&gt;1&lt;/span&gt;&lt;span style=&quot;outline: none; scrollbar-color: rgba(80, 40, 140, 0.5) rgba(0, 0, 0, 0); border-color: currentcolor;&quot; class=&quot;mpunct&quot;&gt;, 2&lt;/span&gt;&lt;span style=&quot;outline: none; scrollbar-color: rgba(80, 40, 140, 0.5) rgba(0, 0, 0, 0); border-color: currentcolor;&quot; class=&quot;mpunct&quot;&gt;, 6&lt;/span&gt;&lt;span style=&quot;outline: none; scrollbar-color: rgba(80, 40, 140, 0.5) rgba(0, 0, 0, 0); border-color: currentcolor;&quot; class=&quot;mord&quot;&gt;&amp;nbsp;}&lt;/span&gt;&lt;/span&gt;&lt;/span&gt;&lt;/font&gt;&lt;/b&gt;" style="rounded=1;whiteSpace=wrap;html=1;fillColor=#66FFFF;strokeColor=none;arcSize=10;" parent="1" vertex="1">
          <mxGeometry x="3397" y="2002" width="141" height="28" as="geometry" />
        </mxCell>
        <mxCell id="UcyLIDLAC5yHybt2mTLH-8" value="&lt;b&gt;&lt;font style=&quot;font-size: 13px;&quot; face=&quot;Comic Sans MS&quot;&gt;&lt;span style=&quot;outline: none; scrollbar-color: rgba(80, 40, 140, 0.5) rgba(0, 0, 0, 0); border-color: currentcolor; position: relative; display: inline-block; text-wrap: nowrap; width: min-content; color: rgb(34, 34, 34); text-align: start;&quot; class=&quot;base&quot;&gt;&lt;span style=&quot;outline: none; scrollbar-color: rgba(80, 40, 140, 0.5) rgba(0, 0, 0, 0); border-color: currentcolor;&quot; class=&quot;mrel&quot;&gt;&lt;i&gt;D&amp;nbsp;&lt;/i&gt;= {&lt;/span&gt;&lt;span style=&quot;outline: none; scrollbar-color: rgba(80, 40, 140, 0.5) rgba(0, 0, 0, 0); border-color: currentcolor; display: inline-block; margin-right: 0.2778em;&quot; class=&quot;mspace&quot;&gt;&lt;/span&gt;&lt;/span&gt;&lt;span style=&quot;outline: none; scrollbar-color: rgba(80, 40, 140, 0.5) rgba(0, 0, 0, 0); border-color: currentcolor; position: relative; display: inline-block; text-wrap: nowrap; width: min-content; color: rgb(34, 34, 34); text-align: start;&quot; class=&quot;base&quot;&gt;&lt;span style=&quot;outline: none; scrollbar-color: rgba(80, 40, 140, 0.5) rgba(0, 0, 0, 0); border-color: currentcolor; display: inline-block; height: 0.8389em; vertical-align: -0.1944em;&quot; class=&quot;strut&quot;&gt;&lt;/span&gt;&lt;span style=&quot;outline: none; scrollbar-color: rgba(80, 40, 140, 0.5) rgba(0, 0, 0, 0); border-color: currentcolor;&quot; class=&quot;mord&quot;&gt;&lt;span style=&quot;outline: none; scrollbar-color: rgba(80, 40, 140, 0.5) rgba(0, 0, 0, 0); border-color: currentcolor;&quot; class=&quot;mord&quot;&gt;1&lt;/span&gt;&lt;span style=&quot;outline: none; scrollbar-color: rgba(80, 40, 140, 0.5) rgba(0, 0, 0, 0); border-color: currentcolor;&quot; class=&quot;mpunct&quot;&gt;,&lt;/span&gt;&lt;span style=&quot;outline: none; scrollbar-color: rgba(80, 40, 140, 0.5) rgba(0, 0, 0, 0); border-color: currentcolor; display: inline-block; margin-right: 0.1667em;&quot; class=&quot;mspace&quot;&gt;&lt;/span&gt;&lt;span style=&quot;outline: none; scrollbar-color: rgba(80, 40, 140, 0.5) rgba(0, 0, 0, 0); border-color: currentcolor;&quot; class=&quot;mord&quot;&gt;2&lt;/span&gt;&lt;span style=&quot;outline: none; scrollbar-color: rgba(80, 40, 140, 0.5) rgba(0, 0, 0, 0); border-color: currentcolor;&quot; class=&quot;mpunct&quot;&gt;, 3&lt;/span&gt;&lt;span style=&quot;outline: none; scrollbar-color: rgba(80, 40, 140, 0.5) rgba(0, 0, 0, 0); border-color: currentcolor;&quot; class=&quot;mord&quot;&gt;&amp;nbsp;}&lt;/span&gt;&lt;/span&gt;&lt;/span&gt;&lt;/font&gt;&lt;/b&gt;" style="rounded=1;whiteSpace=wrap;html=1;fillColor=#66FFFF;strokeColor=none;arcSize=10;" parent="1" vertex="1">
          <mxGeometry x="3542" y="2002" width="161" height="28" as="geometry" />
        </mxCell>
        <mxCell id="UcyLIDLAC5yHybt2mTLH-9" value="" style="rounded=1;whiteSpace=wrap;html=1;fillColor=none;strokeColor=default;arcSize=4;dashed=1;" parent="1" vertex="1">
          <mxGeometry x="3081" y="2037" width="308" height="35" as="geometry" />
        </mxCell>
        <mxCell id="UcyLIDLAC5yHybt2mTLH-13" value="&lt;div style=&quot;text-align: start;&quot;&gt;&lt;font face=&quot;Comic Sans MS&quot;&gt;&lt;span style=&quot;font-size: 13px; text-wrap: nowrap;&quot;&gt;&lt;b&gt;&lt;i&gt;A is Proper Subset of B&lt;/i&gt;&lt;/b&gt;&lt;/span&gt;&lt;/font&gt;&lt;/div&gt;" style="rounded=1;whiteSpace=wrap;html=1;fillColor=#000033;strokeColor=none;arcSize=10;fontColor=#FFFFFF;" parent="1" vertex="1">
          <mxGeometry x="3087" y="2041.5" width="195" height="25" as="geometry" />
        </mxCell>
        <mxCell id="UcyLIDLAC5yHybt2mTLH-14" value="&lt;div style=&quot;text-align: start;&quot;&gt;&lt;font face=&quot;Comic Sans MS&quot; style=&quot;font-size: 13px;&quot;&gt;&lt;b style=&quot;&quot;&gt;&lt;font style=&quot;&quot;&gt;&lt;span style=&quot;text-wrap: nowrap;&quot;&gt;&lt;i style=&quot;&quot;&gt;B&amp;nbsp;&lt;/i&gt;&lt;/span&gt;&lt;/font&gt;&lt;span style=&quot;text-wrap: nowrap;&quot;&gt;âŠ‚ A&lt;/span&gt;&lt;/b&gt;&lt;/font&gt;&lt;/div&gt;" style="rounded=1;whiteSpace=wrap;html=1;fillColor=#000033;strokeColor=none;arcSize=10;fontColor=#FFFFFF;" parent="1" vertex="1">
          <mxGeometry x="3286.68" y="2041.5" width="96.32" height="25" as="geometry" />
        </mxCell>
        <mxCell id="UcyLIDLAC5yHybt2mTLH-19" value="" style="rounded=1;whiteSpace=wrap;html=1;fillColor=none;strokeColor=default;arcSize=4;dashed=1;" parent="1" vertex="1">
          <mxGeometry x="3394" y="2037" width="308" height="35" as="geometry" />
        </mxCell>
        <mxCell id="UcyLIDLAC5yHybt2mTLH-20" value="&lt;div style=&quot;text-align: start;&quot;&gt;&lt;font face=&quot;Comic Sans MS&quot;&gt;&lt;span style=&quot;font-size: 13px; text-wrap: nowrap;&quot;&gt;&lt;b&gt;&lt;i&gt;A is Subset of B&lt;/i&gt;&lt;/b&gt;&lt;/span&gt;&lt;/font&gt;&lt;/div&gt;" style="rounded=1;whiteSpace=wrap;html=1;fillColor=#000033;strokeColor=none;arcSize=10;fontColor=#FFFFFF;" parent="1" vertex="1">
          <mxGeometry x="3400" y="2041.5" width="195" height="25" as="geometry" />
        </mxCell>
        <mxCell id="UcyLIDLAC5yHybt2mTLH-21" value="&lt;div style=&quot;text-align: start;&quot;&gt;&lt;b&gt;&lt;font face=&quot;Comic Sans MS&quot; style=&quot;font-size: 13px;&quot;&gt;&lt;font style=&quot;&quot;&gt;&lt;span style=&quot;text-wrap: nowrap;&quot;&gt;&lt;i style=&quot;&quot;&gt;B&amp;nbsp;&lt;/i&gt;&lt;/span&gt;&lt;/font&gt;&lt;/font&gt;&lt;span style=&quot;font-family: &amp;quot;Open Sans&amp;quot;, Arial; font-size: 15px; white-space-collapse: preserve;&quot;&gt;âŠ†&lt;/span&gt;&lt;font face=&quot;Comic Sans MS&quot; style=&quot;font-size: 13px;&quot;&gt;&lt;span style=&quot;text-wrap: nowrap;&quot;&gt;&amp;nbsp;D&lt;/span&gt;&lt;/font&gt;&lt;/b&gt;&lt;/div&gt;" style="rounded=1;whiteSpace=wrap;html=1;fillColor=#000033;strokeColor=none;arcSize=10;fontColor=#FFFFFF;" parent="1" vertex="1">
          <mxGeometry x="3599.68" y="2041.5" width="96.32" height="25" as="geometry" />
        </mxCell>
        <mxCell id="UcyLIDLAC5yHybt2mTLH-22" value="" style="rounded=1;whiteSpace=wrap;html=1;fillColor=none;strokeColor=default;arcSize=4;dashed=1;" parent="1" vertex="1">
          <mxGeometry x="3081" y="2080" width="308" height="35" as="geometry" />
        </mxCell>
        <mxCell id="UcyLIDLAC5yHybt2mTLH-23" value="&lt;div style=&quot;text-align: start;&quot;&gt;&lt;font face=&quot;Comic Sans MS&quot;&gt;&lt;span style=&quot;font-size: 13px; text-wrap: nowrap;&quot;&gt;&lt;b&gt;&lt;i&gt;C is NOT a Subset of B&lt;/i&gt;&lt;/b&gt;&lt;/span&gt;&lt;/font&gt;&lt;/div&gt;" style="rounded=1;whiteSpace=wrap;html=1;fillColor=#000033;strokeColor=none;arcSize=10;fontColor=#FFFFFF;" parent="1" vertex="1">
          <mxGeometry x="3087" y="2085.5" width="195" height="25" as="geometry" />
        </mxCell>
        <mxCell id="UcyLIDLAC5yHybt2mTLH-24" value="&lt;div style=&quot;text-align: start;&quot;&gt;&lt;font face=&quot;Comic Sans MS&quot;&gt;&lt;font style=&quot;font-size: 13px;&quot;&gt;&lt;b style=&quot;&quot;&gt;&lt;font style=&quot;&quot;&gt;&lt;span style=&quot;text-wrap: nowrap;&quot;&gt;&lt;i style=&quot;&quot;&gt;C&amp;nbsp;&lt;/i&gt;&lt;/span&gt;&lt;/font&gt;&lt;/b&gt;&lt;/font&gt;&lt;span style=&quot;font-size: 15px; white-space-collapse: preserve;&quot;&gt;âŠ‚Ì¸&lt;/span&gt;&lt;font style=&quot;font-size: 13px;&quot;&gt;&lt;b style=&quot;&quot;&gt;&lt;span style=&quot;text-wrap: nowrap;&quot;&gt;&amp;nbsp;&lt;/span&gt;&lt;/b&gt;&lt;/font&gt;&lt;b style=&quot;font-size: 13px;&quot;&gt;&lt;span style=&quot;text-wrap: nowrap;&quot;&gt;&lt;i style=&quot;&quot;&gt;B&lt;/i&gt;&lt;/span&gt;&lt;/b&gt;&lt;/font&gt;&lt;/div&gt;" style="rounded=1;whiteSpace=wrap;html=1;fillColor=#000033;strokeColor=none;arcSize=10;fontColor=#FFFFFF;" parent="1" vertex="1">
          <mxGeometry x="3286.68" y="2085.5" width="96.32" height="25" as="geometry" />
        </mxCell>
        <mxCell id="UcyLIDLAC5yHybt2mTLH-41" value="" style="rounded=1;whiteSpace=wrap;html=1;fillColor=#E6FFCC;strokeColor=none;arcSize=3;" parent="1" vertex="1">
          <mxGeometry x="3072.35" y="2132" width="636.65" height="160" as="geometry" />
        </mxCell>
        <mxCell id="UcyLIDLAC5yHybt2mTLH-42" value="&lt;b&gt;&lt;font style=&quot;font-size: 13px;&quot; face=&quot;Comic Sans MS&quot;&gt;&lt;span style=&quot;outline: none; scrollbar-color: rgba(80, 40, 140, 0.5) rgba(0, 0, 0, 0); border-color: currentcolor; position: relative; display: inline-block; text-wrap: nowrap; width: min-content; color: rgb(34, 34, 34); text-align: start;&quot; class=&quot;base&quot;&gt;&lt;span style=&quot;outline: none; scrollbar-color: rgba(80, 40, 140, 0.5) rgba(0, 0, 0, 0); border-color: currentcolor;&quot; class=&quot;mrel&quot;&gt;&lt;i&gt;A&amp;nbsp;&lt;/i&gt;= {&lt;/span&gt;&lt;span style=&quot;outline: none; scrollbar-color: rgba(80, 40, 140, 0.5) rgba(0, 0, 0, 0); border-color: currentcolor; display: inline-block; margin-right: 0.2778em;&quot; class=&quot;mspace&quot;&gt;&lt;/span&gt;&lt;/span&gt;&lt;span style=&quot;outline: none; scrollbar-color: rgba(80, 40, 140, 0.5) rgba(0, 0, 0, 0); border-color: currentcolor; position: relative; display: inline-block; text-wrap: nowrap; width: min-content; color: rgb(34, 34, 34); text-align: start;&quot; class=&quot;base&quot;&gt;&lt;span style=&quot;outline: none; scrollbar-color: rgba(80, 40, 140, 0.5) rgba(0, 0, 0, 0); border-color: currentcolor; display: inline-block; height: 0.8389em; vertical-align: -0.1944em;&quot; class=&quot;strut&quot;&gt;&lt;/span&gt;&lt;span style=&quot;outline: none; scrollbar-color: rgba(80, 40, 140, 0.5) rgba(0, 0, 0, 0); border-color: currentcolor;&quot; class=&quot;mord&quot;&gt;&lt;span style=&quot;outline: none; scrollbar-color: rgba(80, 40, 140, 0.5) rgba(0, 0, 0, 0); border-color: currentcolor;&quot; class=&quot;mord&quot;&gt;1&lt;/span&gt;&lt;span style=&quot;outline: none; scrollbar-color: rgba(80, 40, 140, 0.5) rgba(0, 0, 0, 0); border-color: currentcolor;&quot; class=&quot;mpunct&quot;&gt;,&lt;/span&gt;&lt;span style=&quot;outline: none; scrollbar-color: rgba(80, 40, 140, 0.5) rgba(0, 0, 0, 0); border-color: currentcolor; display: inline-block; margin-right: 0.1667em;&quot; class=&quot;mspace&quot;&gt;&lt;/span&gt;&lt;span style=&quot;outline: none; scrollbar-color: rgba(80, 40, 140, 0.5) rgba(0, 0, 0, 0); border-color: currentcolor;&quot; class=&quot;mord&quot;&gt;2&lt;/span&gt;&lt;span style=&quot;outline: none; scrollbar-color: rgba(80, 40, 140, 0.5) rgba(0, 0, 0, 0); border-color: currentcolor;&quot; class=&quot;mpunct&quot;&gt;,&lt;/span&gt;&lt;span style=&quot;outline: none; scrollbar-color: rgba(80, 40, 140, 0.5) rgba(0, 0, 0, 0); border-color: currentcolor; display: inline-block; margin-right: 0.1667em;&quot; class=&quot;mspace&quot;&gt;&lt;/span&gt;&lt;span style=&quot;outline: none; scrollbar-color: rgba(80, 40, 140, 0.5) rgba(0, 0, 0, 0); border-color: currentcolor;&quot; class=&quot;mord&quot;&gt;3, 4, 5, 6 }&lt;/span&gt;&lt;/span&gt;&lt;/span&gt;&lt;/font&gt;&lt;/b&gt;" style="rounded=1;whiteSpace=wrap;html=1;fillColor=#B3FF66;strokeColor=none;arcSize=10;" parent="1" vertex="1">
          <mxGeometry x="3080" y="2173" width="160" height="28" as="geometry" />
        </mxCell>
        <mxCell id="UcyLIDLAC5yHybt2mTLH-43" value="&lt;font style=&quot;font-size: 15px;&quot; face=&quot;Comic Sans MS&quot;&gt;&lt;b style=&quot;&quot;&gt;Superset &amp;amp; Proper Superset&lt;/b&gt;&lt;/font&gt;" style="rounded=1;whiteSpace=wrap;html=1;fillColor=#00331A;strokeColor=none;fontColor=#FFFFFF;arcSize=10;" parent="1" vertex="1">
          <mxGeometry x="3079.52" y="2139" width="240" height="28" as="geometry" />
        </mxCell>
        <mxCell id="UcyLIDLAC5yHybt2mTLH-44" value="&lt;b&gt;&lt;font style=&quot;font-size: 13px;&quot; face=&quot;Comic Sans MS&quot;&gt;&lt;span style=&quot;outline: none; scrollbar-color: rgba(80, 40, 140, 0.5) rgba(0, 0, 0, 0); border-color: currentcolor; position: relative; display: inline-block; text-wrap: nowrap; width: min-content; color: rgb(34, 34, 34); text-align: start;&quot; class=&quot;base&quot;&gt;&lt;span style=&quot;outline: none; scrollbar-color: rgba(80, 40, 140, 0.5) rgba(0, 0, 0, 0); border-color: currentcolor;&quot; class=&quot;mrel&quot;&gt;&lt;i&gt;B&amp;nbsp;&lt;/i&gt;= {&lt;/span&gt;&lt;span style=&quot;outline: none; scrollbar-color: rgba(80, 40, 140, 0.5) rgba(0, 0, 0, 0); border-color: currentcolor; display: inline-block; margin-right: 0.2778em;&quot; class=&quot;mspace&quot;&gt;&lt;/span&gt;&lt;/span&gt;&lt;span style=&quot;outline: none; scrollbar-color: rgba(80, 40, 140, 0.5) rgba(0, 0, 0, 0); border-color: currentcolor; position: relative; display: inline-block; text-wrap: nowrap; width: min-content; color: rgb(34, 34, 34); text-align: start;&quot; class=&quot;base&quot;&gt;&lt;span style=&quot;outline: none; scrollbar-color: rgba(80, 40, 140, 0.5) rgba(0, 0, 0, 0); border-color: currentcolor; display: inline-block; height: 0.8389em; vertical-align: -0.1944em;&quot; class=&quot;strut&quot;&gt;&lt;/span&gt;&lt;span style=&quot;outline: none; scrollbar-color: rgba(80, 40, 140, 0.5) rgba(0, 0, 0, 0); border-color: currentcolor;&quot; class=&quot;mord&quot;&gt;&lt;span style=&quot;outline: none; scrollbar-color: rgba(80, 40, 140, 0.5) rgba(0, 0, 0, 0); border-color: currentcolor;&quot; class=&quot;mord&quot;&gt;1&lt;/span&gt;&lt;span style=&quot;outline: none; scrollbar-color: rgba(80, 40, 140, 0.5) rgba(0, 0, 0, 0); border-color: currentcolor;&quot; class=&quot;mpunct&quot;&gt;,&lt;/span&gt;&lt;span style=&quot;outline: none; scrollbar-color: rgba(80, 40, 140, 0.5) rgba(0, 0, 0, 0); border-color: currentcolor; display: inline-block; margin-right: 0.1667em;&quot; class=&quot;mspace&quot;&gt;&lt;/span&gt;&lt;span style=&quot;outline: none; scrollbar-color: rgba(80, 40, 140, 0.5) rgba(0, 0, 0, 0); border-color: currentcolor;&quot; class=&quot;mord&quot;&gt;2&lt;/span&gt;&lt;span style=&quot;outline: none; scrollbar-color: rgba(80, 40, 140, 0.5) rgba(0, 0, 0, 0); border-color: currentcolor;&quot; class=&quot;mpunct&quot;&gt;,&lt;/span&gt;&lt;span style=&quot;outline: none; scrollbar-color: rgba(80, 40, 140, 0.5) rgba(0, 0, 0, 0); border-color: currentcolor; display: inline-block; margin-right: 0.1667em;&quot; class=&quot;mspace&quot;&gt;&lt;/span&gt;&lt;span style=&quot;outline: none; scrollbar-color: rgba(80, 40, 140, 0.5) rgba(0, 0, 0, 0); border-color: currentcolor;&quot; class=&quot;mord&quot;&gt;3 }&lt;/span&gt;&lt;/span&gt;&lt;/span&gt;&lt;/font&gt;&lt;/b&gt;" style="rounded=1;whiteSpace=wrap;html=1;fillColor=#B3FF66;strokeColor=none;arcSize=10;" parent="1" vertex="1">
          <mxGeometry x="3245" y="2173" width="148" height="28" as="geometry" />
        </mxCell>
        <mxCell id="UcyLIDLAC5yHybt2mTLH-45" value="&lt;b&gt;&lt;font style=&quot;font-size: 13px;&quot; face=&quot;Comic Sans MS&quot;&gt;&lt;span style=&quot;outline: none; scrollbar-color: rgba(80, 40, 140, 0.5) rgba(0, 0, 0, 0); border-color: currentcolor; position: relative; display: inline-block; text-wrap: nowrap; width: min-content; color: rgb(34, 34, 34); text-align: start;&quot; class=&quot;base&quot;&gt;&lt;span style=&quot;outline: none; scrollbar-color: rgba(80, 40, 140, 0.5) rgba(0, 0, 0, 0); border-color: currentcolor;&quot; class=&quot;mrel&quot;&gt;&lt;i&gt;C&lt;/i&gt;= {&lt;/span&gt;&lt;span style=&quot;outline: none; scrollbar-color: rgba(80, 40, 140, 0.5) rgba(0, 0, 0, 0); border-color: currentcolor; display: inline-block; margin-right: 0.2778em;&quot; class=&quot;mspace&quot;&gt;&lt;/span&gt;&lt;/span&gt;&lt;span style=&quot;outline: none; scrollbar-color: rgba(80, 40, 140, 0.5) rgba(0, 0, 0, 0); border-color: currentcolor; position: relative; display: inline-block; text-wrap: nowrap; width: min-content; color: rgb(34, 34, 34); text-align: start;&quot; class=&quot;base&quot;&gt;&lt;span style=&quot;outline: none; scrollbar-color: rgba(80, 40, 140, 0.5) rgba(0, 0, 0, 0); border-color: currentcolor; display: inline-block; height: 0.8389em; vertical-align: -0.1944em;&quot; class=&quot;strut&quot;&gt;&lt;/span&gt;&lt;span style=&quot;outline: none; scrollbar-color: rgba(80, 40, 140, 0.5) rgba(0, 0, 0, 0); border-color: currentcolor;&quot; class=&quot;mord&quot;&gt;&lt;span style=&quot;outline: none; scrollbar-color: rgba(80, 40, 140, 0.5) rgba(0, 0, 0, 0); border-color: currentcolor;&quot; class=&quot;mord&quot;&gt;1&lt;/span&gt;&lt;span style=&quot;outline: none; scrollbar-color: rgba(80, 40, 140, 0.5) rgba(0, 0, 0, 0); border-color: currentcolor;&quot; class=&quot;mpunct&quot;&gt;,&lt;/span&gt;&lt;span style=&quot;outline: none; scrollbar-color: rgba(80, 40, 140, 0.5) rgba(0, 0, 0, 0); border-color: currentcolor; display: inline-block; margin-right: 0.1667em;&quot; class=&quot;mspace&quot;&gt;&lt;/span&gt;&lt;span style=&quot;outline: none; scrollbar-color: rgba(80, 40, 140, 0.5) rgba(0, 0, 0, 0); border-color: currentcolor;&quot; class=&quot;mord&quot;&gt;2&lt;/span&gt;&lt;span style=&quot;outline: none; scrollbar-color: rgba(80, 40, 140, 0.5) rgba(0, 0, 0, 0); border-color: currentcolor;&quot; class=&quot;mpunct&quot;&gt;, 6&lt;/span&gt;&lt;span style=&quot;outline: none; scrollbar-color: rgba(80, 40, 140, 0.5) rgba(0, 0, 0, 0); border-color: currentcolor;&quot; class=&quot;mord&quot;&gt;&amp;nbsp;}&lt;/span&gt;&lt;/span&gt;&lt;/span&gt;&lt;/font&gt;&lt;/b&gt;" style="rounded=1;whiteSpace=wrap;html=1;fillColor=#B3FF66;strokeColor=none;arcSize=10;" parent="1" vertex="1">
          <mxGeometry x="3397" y="2173" width="141" height="28" as="geometry" />
        </mxCell>
        <mxCell id="UcyLIDLAC5yHybt2mTLH-46" value="&lt;b&gt;&lt;font style=&quot;font-size: 13px;&quot; face=&quot;Comic Sans MS&quot;&gt;&lt;span style=&quot;outline: none; scrollbar-color: rgba(80, 40, 140, 0.5) rgba(0, 0, 0, 0); border-color: currentcolor; position: relative; display: inline-block; text-wrap: nowrap; width: min-content; color: rgb(34, 34, 34); text-align: start;&quot; class=&quot;base&quot;&gt;&lt;span style=&quot;outline: none; scrollbar-color: rgba(80, 40, 140, 0.5) rgba(0, 0, 0, 0); border-color: currentcolor;&quot; class=&quot;mrel&quot;&gt;&lt;i&gt;D&amp;nbsp;&lt;/i&gt;= {&lt;/span&gt;&lt;span style=&quot;outline: none; scrollbar-color: rgba(80, 40, 140, 0.5) rgba(0, 0, 0, 0); border-color: currentcolor; display: inline-block; margin-right: 0.2778em;&quot; class=&quot;mspace&quot;&gt;&lt;/span&gt;&lt;/span&gt;&lt;span style=&quot;outline: none; scrollbar-color: rgba(80, 40, 140, 0.5) rgba(0, 0, 0, 0); border-color: currentcolor; position: relative; display: inline-block; text-wrap: nowrap; width: min-content; color: rgb(34, 34, 34); text-align: start;&quot; class=&quot;base&quot;&gt;&lt;span style=&quot;outline: none; scrollbar-color: rgba(80, 40, 140, 0.5) rgba(0, 0, 0, 0); border-color: currentcolor; display: inline-block; height: 0.8389em; vertical-align: -0.1944em;&quot; class=&quot;strut&quot;&gt;&lt;/span&gt;&lt;span style=&quot;outline: none; scrollbar-color: rgba(80, 40, 140, 0.5) rgba(0, 0, 0, 0); border-color: currentcolor;&quot; class=&quot;mord&quot;&gt;&lt;span style=&quot;outline: none; scrollbar-color: rgba(80, 40, 140, 0.5) rgba(0, 0, 0, 0); border-color: currentcolor;&quot; class=&quot;mord&quot;&gt;1&lt;/span&gt;&lt;span style=&quot;outline: none; scrollbar-color: rgba(80, 40, 140, 0.5) rgba(0, 0, 0, 0); border-color: currentcolor;&quot; class=&quot;mpunct&quot;&gt;,&lt;/span&gt;&lt;span style=&quot;outline: none; scrollbar-color: rgba(80, 40, 140, 0.5) rgba(0, 0, 0, 0); border-color: currentcolor; display: inline-block; margin-right: 0.1667em;&quot; class=&quot;mspace&quot;&gt;&lt;/span&gt;&lt;span style=&quot;outline: none; scrollbar-color: rgba(80, 40, 140, 0.5) rgba(0, 0, 0, 0); border-color: currentcolor;&quot; class=&quot;mord&quot;&gt;2&lt;/span&gt;&lt;span style=&quot;outline: none; scrollbar-color: rgba(80, 40, 140, 0.5) rgba(0, 0, 0, 0); border-color: currentcolor;&quot; class=&quot;mpunct&quot;&gt;, 3&lt;/span&gt;&lt;span style=&quot;outline: none; scrollbar-color: rgba(80, 40, 140, 0.5) rgba(0, 0, 0, 0); border-color: currentcolor;&quot; class=&quot;mord&quot;&gt;&amp;nbsp;}&lt;/span&gt;&lt;/span&gt;&lt;/span&gt;&lt;/font&gt;&lt;/b&gt;" style="rounded=1;whiteSpace=wrap;html=1;fillColor=#B3FF66;strokeColor=none;arcSize=10;" parent="1" vertex="1">
          <mxGeometry x="3542" y="2173" width="160" height="28" as="geometry" />
        </mxCell>
        <mxCell id="UcyLIDLAC5yHybt2mTLH-47" value="" style="rounded=1;whiteSpace=wrap;html=1;fillColor=none;strokeColor=default;arcSize=4;dashed=1;" parent="1" vertex="1">
          <mxGeometry x="3081" y="2208" width="308" height="35" as="geometry" />
        </mxCell>
        <mxCell id="UcyLIDLAC5yHybt2mTLH-48" value="&lt;div style=&quot;text-align: start;&quot;&gt;&lt;font face=&quot;Comic Sans MS&quot;&gt;&lt;span style=&quot;font-size: 13px; text-wrap: nowrap;&quot;&gt;&lt;b&gt;&lt;i&gt;A is Proper Superset of B&lt;/i&gt;&lt;/b&gt;&lt;/span&gt;&lt;/font&gt;&lt;/div&gt;" style="rounded=1;whiteSpace=wrap;html=1;fillColor=#00331A;strokeColor=none;arcSize=10;fontColor=#FFFFFF;" parent="1" vertex="1">
          <mxGeometry x="3087" y="2212.5" width="195" height="25" as="geometry" />
        </mxCell>
        <mxCell id="UcyLIDLAC5yHybt2mTLH-49" value="&lt;div style=&quot;text-align: start;&quot;&gt;&lt;span style=&quot;outline: none; scrollbar-color: rgba(80, 40, 140, 0.5) rgba(0, 0, 0, 0); border-color: currentcolor; position: relative; display: inline-block; text-wrap: nowrap; width: min-content;&quot; class=&quot;base&quot;&gt;&lt;span style=&quot;outline: none; scrollbar-color: rgba(80, 40, 140, 0.5) rgba(0, 0, 0, 0); border-color: currentcolor; font-style: italic;&quot; class=&quot;mord mathnormal&quot;&gt;A&lt;/span&gt;&lt;span style=&quot;outline: none; scrollbar-color: rgba(80, 40, 140, 0.5) rgba(0, 0, 0, 0); border-color: currentcolor; display: inline-block; margin-right: 0.2778em;&quot; class=&quot;mspace&quot;&gt;&lt;/span&gt;&lt;span style=&quot;outline: none; scrollbar-color: rgba(80, 40, 140, 0.5) rgba(0, 0, 0, 0); border-color: currentcolor;&quot; class=&quot;mrel&quot;&gt;âŠƒ&lt;/span&gt;&lt;span style=&quot;outline: none; scrollbar-color: rgba(80, 40, 140, 0.5) rgba(0, 0, 0, 0); border-color: currentcolor; display: inline-block; margin-right: 0.2778em;&quot; class=&quot;mspace&quot;&gt;&lt;/span&gt;&lt;/span&gt;&lt;span style=&quot;outline: none; scrollbar-color: rgba(80, 40, 140, 0.5) rgba(0, 0, 0, 0); border-color: currentcolor; position: relative; display: inline-block; text-wrap: nowrap; width: min-content;&quot; class=&quot;base&quot;&gt;&lt;span style=&quot;outline: none; scrollbar-color: rgba(80, 40, 140, 0.5) rgba(0, 0, 0, 0); border-color: currentcolor; display: inline-block; height: 0.6833em;&quot; class=&quot;strut&quot;&gt;&lt;/span&gt;&lt;span style=&quot;outline: none; scrollbar-color: rgba(80, 40, 140, 0.5) rgba(0, 0, 0, 0); border-color: currentcolor; font-style: italic; margin-right: 0.0502em;&quot; class=&quot;mord mathnormal&quot;&gt;B&lt;/span&gt;&lt;/span&gt;&lt;br&gt;&lt;/div&gt;" style="rounded=1;whiteSpace=wrap;html=1;fillColor=#00331A;strokeColor=none;arcSize=10;fontColor=#FFFFFF;fontSize=13;fontStyle=1;fontFamily=Comic Sans MS;" parent="1" vertex="1">
          <mxGeometry x="3286.68" y="2212.5" width="96.32" height="25" as="geometry" />
        </mxCell>
        <mxCell id="UcyLIDLAC5yHybt2mTLH-50" value="" style="rounded=1;whiteSpace=wrap;html=1;fillColor=none;strokeColor=default;arcSize=4;dashed=1;" parent="1" vertex="1">
          <mxGeometry x="3394" y="2208" width="308" height="35" as="geometry" />
        </mxCell>
        <mxCell id="UcyLIDLAC5yHybt2mTLH-51" value="&lt;div style=&quot;text-align: start;&quot;&gt;&lt;font face=&quot;Comic Sans MS&quot;&gt;&lt;span style=&quot;font-size: 13px; text-wrap: nowrap;&quot;&gt;&lt;b&gt;&lt;i&gt;B is a Superset of D&lt;/i&gt;&lt;/b&gt;&lt;/span&gt;&lt;/font&gt;&lt;/div&gt;" style="rounded=1;whiteSpace=wrap;html=1;fillColor=#00331A;strokeColor=none;arcSize=10;fontColor=#FFFFFF;" parent="1" vertex="1">
          <mxGeometry x="3400" y="2212.5" width="195" height="25" as="geometry" />
        </mxCell>
        <mxCell id="UcyLIDLAC5yHybt2mTLH-52" value="&lt;div style=&quot;text-align: start;&quot;&gt;&lt;span style=&quot;outline: none; scrollbar-color: rgba(80, 40, 140, 0.5) rgba(0, 0, 0, 0); font-variant-numeric: normal; font-variant-east-asian: normal; font-variant-alternates: normal; font-size-adjust: none; font-kerning: auto; font-optical-sizing: auto; font-feature-settings: normal; font-variation-settings: normal; font-variant-position: normal; font-stretch: normal; line-height: 1.2; text-rendering: auto; white-space-collapse: preserve;&quot; class=&quot;katex&quot;&gt;&lt;span style=&quot;outline: none; scrollbar-color: rgba(80, 40, 140, 0.5) rgba(0, 0, 0, 0); border-color: currentcolor;&quot; aria-hidden=&quot;true&quot; class=&quot;katex-html&quot;&gt;&lt;span style=&quot;outline: none; scrollbar-color: rgba(80, 40, 140, 0.5) rgba(0, 0, 0, 0); border-color: currentcolor; position: relative; display: inline-block; white-space: nowrap; width: min-content;&quot; class=&quot;base&quot;&gt;&lt;span style=&quot;outline: none; scrollbar-color: rgba(80, 40, 140, 0.5) rgba(0, 0, 0, 0); border-color: currentcolor; font-style: italic;&quot; class=&quot;mord mathnormal&quot;&gt;A&lt;/span&gt;&lt;/span&gt;&lt;/span&gt;&lt;/span&gt;&lt;span style=&quot;white-space-collapse: preserve;&quot;&gt; âŠ‡ &lt;/span&gt;&lt;span style=&quot;outline: none; scrollbar-color: rgba(80, 40, 140, 0.5) rgba(0, 0, 0, 0); font-variant-numeric: normal; font-variant-east-asian: normal; font-variant-alternates: normal; font-size-adjust: none; font-kerning: auto; font-optical-sizing: auto; font-feature-settings: normal; font-variation-settings: normal; font-variant-position: normal; font-stretch: normal; line-height: 1.2; text-rendering: auto; white-space-collapse: preserve;&quot; class=&quot;katex&quot;&gt;&lt;span style=&quot;outline: none; scrollbar-color: rgba(80, 40, 140, 0.5) rgba(0, 0, 0, 0); border: 0px; position: absolute; clip: rect(1px, 1px, 1px, 1px); padding: 0px; height: 1px; width: 1px; overflow: hidden;&quot; class=&quot;katex-mathml&quot;&gt;&lt;math xmlns=&quot;http://www.w3.org/1998/Math/MathML&quot;&gt;&lt;mrow&gt;&lt;mi&gt;B&lt;/mi&gt;&lt;/mrow&gt;&lt;/math&gt;&lt;/span&gt;&lt;span style=&quot;outline: none; scrollbar-color: rgba(80, 40, 140, 0.5) rgba(0, 0, 0, 0); border-color: currentcolor;&quot; aria-hidden=&quot;true&quot; class=&quot;katex-html&quot;&gt;&lt;span style=&quot;outline: none; scrollbar-color: rgba(80, 40, 140, 0.5) rgba(0, 0, 0, 0); border-color: currentcolor; position: relative; display: inline-block; white-space: nowrap; width: min-content;&quot; class=&quot;base&quot;&gt;&lt;span style=&quot;outline: none; scrollbar-color: rgba(80, 40, 140, 0.5) rgba(0, 0, 0, 0); border-color: currentcolor; display: inline-block; height: 0.6833em;&quot; class=&quot;strut&quot;&gt;&lt;/span&gt;&lt;span style=&quot;outline: none; scrollbar-color: rgba(80, 40, 140, 0.5) rgba(0, 0, 0, 0); border-color: currentcolor; font-style: italic; margin-right: 0.0502em;&quot; class=&quot;mord mathnormal&quot;&gt;B&lt;/span&gt;&lt;/span&gt;&lt;/span&gt;&lt;/span&gt;&lt;br&gt;&lt;/div&gt;" style="rounded=1;whiteSpace=wrap;html=1;fillColor=#00331A;strokeColor=none;arcSize=10;fontColor=#FFFFFF;fontSize=13;fontStyle=1;fontFamily=Comic Sans MS;" parent="1" vertex="1">
          <mxGeometry x="3599.68" y="2212.5" width="96.32" height="25" as="geometry" />
        </mxCell>
        <mxCell id="UcyLIDLAC5yHybt2mTLH-53" value="" style="rounded=1;whiteSpace=wrap;html=1;fillColor=none;strokeColor=default;arcSize=4;dashed=1;" parent="1" vertex="1">
          <mxGeometry x="3081" y="2250" width="308" height="35" as="geometry" />
        </mxCell>
        <mxCell id="UcyLIDLAC5yHybt2mTLH-54" value="&lt;div style=&quot;text-align: start;&quot;&gt;&lt;font face=&quot;Comic Sans MS&quot;&gt;&lt;span style=&quot;font-size: 13px; text-wrap: nowrap;&quot;&gt;&lt;b&gt;&lt;i&gt;B is NOT a Superset of C&lt;/i&gt;&lt;/b&gt;&lt;/span&gt;&lt;/font&gt;&lt;/div&gt;" style="rounded=1;whiteSpace=wrap;html=1;fillColor=#00331A;strokeColor=none;arcSize=10;fontColor=#FFFFFF;" parent="1" vertex="1">
          <mxGeometry x="3087" y="2255.5" width="195" height="25" as="geometry" />
        </mxCell>
        <mxCell id="UcyLIDLAC5yHybt2mTLH-55" value="&lt;div style=&quot;text-align: start;&quot;&gt;&lt;b&gt;&lt;font face=&quot;Comic Sans MS&quot;&gt;&lt;span style=&quot;font-size: 13px; text-wrap: nowrap;&quot;&gt;&lt;i style=&quot;&quot;&gt;B&amp;nbsp;&lt;/i&gt;&lt;/span&gt;&lt;span style=&quot;font-size: 15px; white-space-collapse: preserve;&quot;&gt;âŠƒÌ¸ &lt;/span&gt;&lt;span style=&quot;white-space-collapse: preserve;&quot;&gt;&lt;font style=&quot;font-size: 13px;&quot;&gt;C&lt;/font&gt;&lt;/span&gt;&lt;/font&gt;&lt;/b&gt;&lt;/div&gt;" style="rounded=1;whiteSpace=wrap;html=1;fillColor=#00331A;strokeColor=none;arcSize=10;fontColor=#FFFFFF;" parent="1" vertex="1">
          <mxGeometry x="3286.68" y="2255.5" width="96.32" height="25" as="geometry" />
        </mxCell>
        <mxCell id="UcyLIDLAC5yHybt2mTLH-56" value="" style="rounded=1;whiteSpace=wrap;html=1;fillColor=#FFE6CC;strokeColor=none;arcSize=3;" parent="1" vertex="1">
          <mxGeometry x="3074.52" y="2301" width="636.65" height="79" as="geometry" />
        </mxCell>
        <mxCell id="UcyLIDLAC5yHybt2mTLH-57" value="&lt;b&gt;&lt;font style=&quot;font-size: 13px;&quot; face=&quot;Comic Sans MS&quot;&gt;&lt;span style=&quot;outline: none; scrollbar-color: rgba(80, 40, 140, 0.5) rgba(0, 0, 0, 0); border-color: currentcolor; position: relative; display: inline-block; text-wrap: nowrap; width: min-content; color: rgb(34, 34, 34); text-align: start;&quot; class=&quot;base&quot;&gt;&lt;span style=&quot;outline: none; scrollbar-color: rgba(80, 40, 140, 0.5) rgba(0, 0, 0, 0); border-color: currentcolor;&quot; class=&quot;mrel&quot;&gt;&lt;i&gt;A&amp;nbsp;&lt;/i&gt;= {&lt;/span&gt;&lt;span style=&quot;outline: none; scrollbar-color: rgba(80, 40, 140, 0.5) rgba(0, 0, 0, 0); border-color: currentcolor; display: inline-block; margin-right: 0.2778em;&quot; class=&quot;mspace&quot;&gt;&lt;/span&gt;&lt;/span&gt;&lt;span style=&quot;outline: none; scrollbar-color: rgba(80, 40, 140, 0.5) rgba(0, 0, 0, 0); border-color: currentcolor; position: relative; display: inline-block; text-wrap: nowrap; width: min-content; color: rgb(34, 34, 34); text-align: start;&quot; class=&quot;base&quot;&gt;&lt;span style=&quot;outline: none; scrollbar-color: rgba(80, 40, 140, 0.5) rgba(0, 0, 0, 0); border-color: currentcolor; display: inline-block; height: 0.8389em; vertical-align: -0.1944em;&quot; class=&quot;strut&quot;&gt;&lt;/span&gt;&lt;span style=&quot;outline: none; scrollbar-color: rgba(80, 40, 140, 0.5) rgba(0, 0, 0, 0); border-color: currentcolor;&quot; class=&quot;mord&quot;&gt;&lt;span style=&quot;outline: none; scrollbar-color: rgba(80, 40, 140, 0.5) rgba(0, 0, 0, 0); border-color: currentcolor;&quot; class=&quot;mord&quot;&gt;1&lt;/span&gt;&lt;span style=&quot;outline: none; scrollbar-color: rgba(80, 40, 140, 0.5) rgba(0, 0, 0, 0); border-color: currentcolor;&quot; class=&quot;mpunct&quot;&gt;,&lt;/span&gt;&lt;span style=&quot;outline: none; scrollbar-color: rgba(80, 40, 140, 0.5) rgba(0, 0, 0, 0); border-color: currentcolor; display: inline-block; margin-right: 0.1667em;&quot; class=&quot;mspace&quot;&gt;&lt;/span&gt;&lt;span style=&quot;outline: none; scrollbar-color: rgba(80, 40, 140, 0.5) rgba(0, 0, 0, 0); border-color: currentcolor;&quot; class=&quot;mord&quot;&gt;2&lt;/span&gt;&lt;span style=&quot;outline: none; scrollbar-color: rgba(80, 40, 140, 0.5) rgba(0, 0, 0, 0); border-color: currentcolor;&quot; class=&quot;mpunct&quot;&gt;,&lt;/span&gt;&lt;span style=&quot;outline: none; scrollbar-color: rgba(80, 40, 140, 0.5) rgba(0, 0, 0, 0); border-color: currentcolor; display: inline-block; margin-right: 0.1667em;&quot; class=&quot;mspace&quot;&gt;&lt;/span&gt;&lt;span style=&quot;outline: none; scrollbar-color: rgba(80, 40, 140, 0.5) rgba(0, 0, 0, 0); border-color: currentcolor;&quot; class=&quot;mord&quot;&gt;3 }&lt;/span&gt;&lt;/span&gt;&lt;/span&gt;&lt;/font&gt;&lt;/b&gt;" style="rounded=1;whiteSpace=wrap;html=1;fillColor=#FFB366;strokeColor=none;arcSize=10;" parent="1" vertex="1">
          <mxGeometry x="3082.17" y="2342" width="160" height="28" as="geometry" />
        </mxCell>
        <mxCell id="UcyLIDLAC5yHybt2mTLH-58" value="&lt;font style=&quot;font-size: 15px;&quot; face=&quot;Comic Sans MS&quot;&gt;&lt;b&gt;&lt;font style=&quot;&quot;&gt;Power Set (A Set&lt;/font&gt;&amp;nbsp;(denoted as P(A) or 2^A) is a set of all possible subsets of A)&lt;/b&gt;&lt;/font&gt;" style="rounded=1;whiteSpace=wrap;html=1;fillColor=#CC6600;strokeColor=none;fontColor=#FFFFFF;arcSize=10;" parent="1" vertex="1">
          <mxGeometry x="3081.69" y="2308" width="622.31" height="28" as="geometry" />
        </mxCell>
        <mxCell id="UcyLIDLAC5yHybt2mTLH-71" value="&lt;font style=&quot;font-size: 13px;&quot; face=&quot;Comic Sans MS&quot;&gt;&lt;b&gt;P(A) = {âˆ…, {1}, {2}, {3}, {1,2}, {1,3}, {2,3}, {1,2,3}}&lt;/b&gt;&lt;/font&gt;" style="rounded=1;whiteSpace=wrap;html=1;fillColor=#FFB366;strokeColor=none;arcSize=10;" parent="1" vertex="1">
          <mxGeometry x="3249" y="2342" width="455" height="28" as="geometry" />
        </mxCell>
        <mxCell id="UcyLIDLAC5yHybt2mTLH-100" value="" style="group" parent="1" vertex="1" connectable="0">
          <mxGeometry x="2973" y="2431" width="854.8600000000001" height="261.32000000000016" as="geometry" />
        </mxCell>
        <mxCell id="UcyLIDLAC5yHybt2mTLH-75" value="" style="rounded=1;whiteSpace=wrap;html=1;fillColor=#FFFFCC;strokeColor=default;arcSize=0;strokeWidth=2;container=0;" parent="UcyLIDLAC5yHybt2mTLH-100" vertex="1">
          <mxGeometry x="192" y="31.550000000000182" width="470" height="228.73" as="geometry" />
        </mxCell>
        <mxCell id="UcyLIDLAC5yHybt2mTLH-73" value="" style="ellipse;whiteSpace=wrap;html=1;aspect=fixed;fillStyle=auto;gradientColor=none;fillColor=#009900;shadow=0;strokeWidth=2;container=0;" parent="UcyLIDLAC5yHybt2mTLH-100" vertex="1">
          <mxGeometry x="404.94318181818153" y="78.87323943661977" width="160.11267605633802" height="160.11267605633802" as="geometry" />
        </mxCell>
        <mxCell id="UcyLIDLAC5yHybt2mTLH-72" value="" style="ellipse;whiteSpace=wrap;html=1;aspect=fixed;fillStyle=auto;gradientColor=none;fillColor=#007FFF;shadow=0;strokeWidth=2;container=0;" parent="UcyLIDLAC5yHybt2mTLH-100" vertex="1">
          <mxGeometry x="286.16823863636364" y="78.87323943661977" width="160.11267605633802" height="160.11267605633802" as="geometry" />
        </mxCell>
        <mxCell id="UcyLIDLAC5yHybt2mTLH-79" value="&lt;font face=&quot;Comic Sans MS&quot; style=&quot;font-size: 18px;&quot;&gt;&lt;b style=&quot;&quot;&gt;U = Universal&lt;/b&gt;&lt;/font&gt;" style="rounded=1;whiteSpace=wrap;html=1;fillColor=#FFFF00;strokeColor=none;fontColor=#000000;arcSize=20;container=0;" parent="UcyLIDLAC5yHybt2mTLH-100" vertex="1">
          <mxGeometry x="202.00318181818193" y="39.436619718309885" width="139.0909090909091" height="23.661971830985912" as="geometry" />
        </mxCell>
        <mxCell id="UcyLIDLAC5yHybt2mTLH-80" value="&lt;font face=&quot;Comic Sans MS&quot;&gt;&lt;b&gt;A&lt;/b&gt;&lt;/font&gt;" style="rounded=1;whiteSpace=wrap;html=1;fillColor=#007FFF;strokeColor=none;fontColor=#FFFFFF;arcSize=20;fontSize=18;container=0;" parent="UcyLIDLAC5yHybt2mTLH-100" vertex="1">
          <mxGeometry x="353.1842613636363" y="86.76056338028184" width="26.079545454545457" height="23.661971830985912" as="geometry" />
        </mxCell>
        <mxCell id="UcyLIDLAC5yHybt2mTLH-81" value="&lt;font face=&quot;Comic Sans MS&quot;&gt;&lt;b&gt;B&lt;/b&gt;&lt;/font&gt;" style="rounded=1;whiteSpace=wrap;html=1;fillColor=#009900;strokeColor=none;fontColor=#FFFFFF;arcSize=20;fontSize=18;container=0;" parent="UcyLIDLAC5yHybt2mTLH-100" vertex="1">
          <mxGeometry x="471.95659090909066" y="86.76056338028184" width="26.079545454545457" height="23.661971830985912" as="geometry" />
        </mxCell>
        <mxCell id="UcyLIDLAC5yHybt2mTLH-82" value="&lt;div style=&quot;text-align: start;&quot;&gt;&lt;span style=&quot;background-color: initial; text-wrap: nowrap;&quot;&gt;&lt;font face=&quot;Comic Sans MS&quot; style=&quot;font-size: 18px;&quot;&gt;&lt;b style=&quot;&quot;&gt;&lt;i style=&quot;&quot;&gt;Peter&lt;/i&gt;&lt;/b&gt;&lt;/font&gt;&lt;/span&gt;&lt;/div&gt;" style="rounded=1;whiteSpace=wrap;html=1;fillColor=none;strokeColor=none;arcSize=10;container=0;fontColor=#FFFFFF;" parent="UcyLIDLAC5yHybt2mTLH-100" vertex="1">
          <mxGeometry x="297.29551136363625" y="126.19718309859172" width="104.31818181818183" height="22.08450704225352" as="geometry" />
        </mxCell>
        <mxCell id="UcyLIDLAC5yHybt2mTLH-85" value="&lt;div style=&quot;text-align: start;&quot;&gt;&lt;span style=&quot;background-color: initial; text-wrap: nowrap;&quot;&gt;&lt;font face=&quot;Comic Sans MS&quot; style=&quot;font-size: 18px;&quot;&gt;&lt;b style=&quot;&quot;&gt;&lt;i style=&quot;&quot;&gt;Thomas&lt;/i&gt;&lt;/b&gt;&lt;/font&gt;&lt;/span&gt;&lt;/div&gt;" style="rounded=1;whiteSpace=wrap;html=1;fillColor=none;strokeColor=none;arcSize=10;container=0;fontColor=#FFFFFF;" parent="UcyLIDLAC5yHybt2mTLH-100" vertex="1">
          <mxGeometry x="295.409090909091" y="165.63380281690115" width="104.31818181818183" height="22.08450704225352" as="geometry" />
        </mxCell>
        <mxCell id="UcyLIDLAC5yHybt2mTLH-86" value="&lt;div style=&quot;text-align: start;&quot;&gt;&lt;span style=&quot;background-color: initial; text-wrap: nowrap;&quot;&gt;&lt;font face=&quot;Comic Sans MS&quot; style=&quot;font-size: 18px;&quot;&gt;&lt;b style=&quot;&quot;&gt;&lt;i style=&quot;&quot;&gt;Lucas&lt;/i&gt;&lt;/b&gt;&lt;/font&gt;&lt;/span&gt;&lt;/div&gt;" style="rounded=1;whiteSpace=wrap;html=1;fillColor=none;strokeColor=none;arcSize=10;container=0;fontColor=#FFFFFF;" parent="UcyLIDLAC5yHybt2mTLH-100" vertex="1">
          <mxGeometry x="446.2794318181818" y="128.95732394366178" width="104.31818181818183" height="22.08450704225352" as="geometry" />
        </mxCell>
        <mxCell id="UcyLIDLAC5yHybt2mTLH-90" value="&lt;font style=&quot;font-size: 18px;&quot; face=&quot;Comic Sans MS&quot;&gt;&lt;b style=&quot;&quot;&gt;Venn Diagrams&lt;/b&gt;&lt;/font&gt;" style="rounded=1;whiteSpace=wrap;html=1;fillColor=#FF8000;strokeColor=none;fontColor=#FFFFFF;arcSize=10;container=0;" parent="UcyLIDLAC5yHybt2mTLH-100" vertex="1">
          <mxGeometry x="354.3000000000002" width="156.48" height="27" as="geometry" />
        </mxCell>
        <mxCell id="UcyLIDLAC5yHybt2mTLH-92" value="" style="rounded=1;whiteSpace=wrap;html=1;arcSize=18;strokeColor=none;fillColor=none;container=0;" parent="UcyLIDLAC5yHybt2mTLH-100" vertex="1">
          <mxGeometry x="20" y="12.11" width="153.86" height="248.17" as="geometry" />
        </mxCell>
        <mxCell id="UcyLIDLAC5yHybt2mTLH-97" value="&lt;div style=&quot;text-align: start;&quot;&gt;&lt;span style=&quot;background-color: initial; text-wrap: nowrap;&quot;&gt;&lt;font face=&quot;Comic Sans MS&quot; style=&quot;font-size: 18px;&quot;&gt;&lt;b style=&quot;&quot;&gt;&lt;i style=&quot;&quot;&gt;Pedro&lt;/i&gt;&lt;/b&gt;&lt;/font&gt;&lt;/span&gt;&lt;/div&gt;" style="rounded=1;whiteSpace=wrap;html=1;fillColor=none;strokeColor=none;arcSize=10;container=0;fontColor=#FFFFFF;" parent="UcyLIDLAC5yHybt2mTLH-100" vertex="1">
          <mxGeometry x="444.57943181818155" y="169.967323943662" width="104.31818181818183" height="22.08450704225352" as="geometry" />
        </mxCell>
        <mxCell id="UcyLIDLAC5yHybt2mTLH-95" value="" style="rounded=1;whiteSpace=wrap;html=1;arcSize=18;strokeColor=none;fillColor=none;container=0;" parent="UcyLIDLAC5yHybt2mTLH-100" vertex="1">
          <mxGeometry x="681" y="13.15" width="149" height="248.17" as="geometry" />
        </mxCell>
        <mxCell id="UcyLIDLAC5yHybt2mTLH-98" value="&lt;div style=&quot;text-align: start;&quot;&gt;&lt;font face=&quot;Comic Sans MS&quot; color=&quot;#222222&quot;&gt;&lt;span style=&quot;font-size: 18px; text-wrap: nowrap;&quot;&gt;&lt;b&gt;&lt;i&gt;Annie&lt;/i&gt;&lt;/b&gt;&lt;/span&gt;&lt;/font&gt;&lt;/div&gt;" style="rounded=1;whiteSpace=wrap;html=1;fillColor=none;strokeColor=none;arcSize=10;container=0;" parent="UcyLIDLAC5yHybt2mTLH-100" vertex="1">
          <mxGeometry x="565.0594318181816" y="145.54732394366192" width="104.31818181818183" height="22.08450704225352" as="geometry" />
        </mxCell>
        <mxCell id="UcyLIDLAC5yHybt2mTLH-99" value="&lt;div style=&quot;text-align: start;&quot;&gt;&lt;font face=&quot;Comic Sans MS&quot; color=&quot;#222222&quot;&gt;&lt;span style=&quot;font-size: 18px; text-wrap: nowrap;&quot;&gt;&lt;b&gt;&lt;i&gt;Claire&lt;/i&gt;&lt;/b&gt;&lt;/span&gt;&lt;/font&gt;&lt;/div&gt;" style="rounded=1;whiteSpace=wrap;html=1;fillColor=none;strokeColor=none;arcSize=10;container=0;" parent="UcyLIDLAC5yHybt2mTLH-100" vertex="1">
          <mxGeometry x="181.84943181818153" y="147.88732394366207" width="104.31818181818183" height="22.08450704225352" as="geometry" />
        </mxCell>
        <mxCell id="UcyLIDLAC5yHybt2mTLH-138" value="" style="whiteSpace=wrap;html=1;shape=mxgraph.basic.pointed_oval;fillColor=#00FFFF;strokeWidth=2;" parent="UcyLIDLAC5yHybt2mTLH-100" vertex="1">
          <mxGeometry x="398" y="105" width="55.73" height="107" as="geometry" />
        </mxCell>
        <mxCell id="UcyLIDLAC5yHybt2mTLH-87" value="&lt;div style=&quot;text-align: start;&quot;&gt;&lt;span style=&quot;background-color: initial; text-wrap: nowrap;&quot;&gt;&lt;font style=&quot;font-size: 18px;&quot; face=&quot;Comic Sans MS&quot; color=&quot;#222222&quot;&gt;&lt;b style=&quot;&quot;&gt;&lt;i style=&quot;&quot;&gt;Eric&lt;/i&gt;&lt;/b&gt;&lt;/font&gt;&lt;/span&gt;&lt;/div&gt;" style="rounded=1;whiteSpace=wrap;html=1;fillColor=none;strokeColor=none;arcSize=10;container=0;" parent="UcyLIDLAC5yHybt2mTLH-100" vertex="1">
          <mxGeometry x="414.3855681818177" y="145.54732394366238" width="26.079545454545457" height="22.08450704225352" as="geometry" />
        </mxCell>
        <mxCell id="UcyLIDLAC5yHybt2mTLH-140" value="" style="rounded=1;whiteSpace=wrap;html=1;fillColor=#FFFFCC;strokeColor=default;arcSize=0;strokeWidth=2;container=0;" parent="1" vertex="1">
          <mxGeometry x="4098" y="1194" width="372" height="228.73" as="geometry" />
        </mxCell>
        <mxCell id="UcyLIDLAC5yHybt2mTLH-141" value="" style="ellipse;whiteSpace=wrap;html=1;aspect=fixed;fillStyle=auto;gradientColor=none;fillColor=#9933FF;shadow=0;strokeWidth=2;container=0;" parent="1" vertex="1">
          <mxGeometry x="4263.833181818181" y="1241.3232394366196" width="160.11267605633802" height="160.11267605633802" as="geometry" />
        </mxCell>
        <mxCell id="UcyLIDLAC5yHybt2mTLH-142" value="" style="ellipse;whiteSpace=wrap;html=1;aspect=fixed;fillStyle=auto;gradientColor=none;fillColor=#9933FF;shadow=0;strokeWidth=2;container=0;" parent="1" vertex="1">
          <mxGeometry x="4145.058238636364" y="1241.3232394366196" width="160.11267605633802" height="160.11267605633802" as="geometry" />
        </mxCell>
        <mxCell id="UcyLIDLAC5yHybt2mTLH-143" value="&lt;font face=&quot;Comic Sans MS&quot; style=&quot;font-size: 18px;&quot;&gt;&lt;b style=&quot;&quot;&gt;U&lt;/b&gt;&lt;/font&gt;" style="rounded=1;whiteSpace=wrap;html=1;fillColor=#FFFF00;strokeColor=none;fontColor=#000000;arcSize=20;container=0;" parent="1" vertex="1">
          <mxGeometry x="4107.08" y="1204" width="49.11" height="23.66" as="geometry" />
        </mxCell>
        <mxCell id="UcyLIDLAC5yHybt2mTLH-144" value="&lt;font face=&quot;Comic Sans MS&quot;&gt;&lt;b&gt;A&lt;/b&gt;&lt;/font&gt;" style="rounded=1;whiteSpace=wrap;html=1;fillColor=none;strokeColor=none;fontColor=#FFFFFF;arcSize=20;fontSize=18;container=0;" parent="1" vertex="1">
          <mxGeometry x="4212.074261363636" y="1249.2105633802817" width="26.079545454545457" height="23.661971830985912" as="geometry" />
        </mxCell>
        <mxCell id="UcyLIDLAC5yHybt2mTLH-145" value="&lt;font face=&quot;Comic Sans MS&quot;&gt;&lt;b&gt;B&lt;/b&gt;&lt;/font&gt;" style="rounded=1;whiteSpace=wrap;html=1;fillColor=none;strokeColor=none;fontColor=#FFFFFF;arcSize=20;fontSize=18;container=0;" parent="1" vertex="1">
          <mxGeometry x="4330.84659090909" y="1249.2105633802817" width="26.079545454545457" height="23.661971830985912" as="geometry" />
        </mxCell>
        <mxCell id="UcyLIDLAC5yHybt2mTLH-146" value="&lt;div style=&quot;text-align: start;&quot;&gt;&lt;span style=&quot;background-color: initial; text-wrap: nowrap;&quot;&gt;&lt;font face=&quot;Comic Sans MS&quot; style=&quot;font-size: 18px;&quot;&gt;&lt;b style=&quot;&quot;&gt;&lt;i style=&quot;&quot;&gt;Peter&lt;/i&gt;&lt;/b&gt;&lt;/font&gt;&lt;/span&gt;&lt;/div&gt;" style="rounded=1;whiteSpace=wrap;html=1;fillColor=none;strokeColor=none;arcSize=10;container=0;fontColor=#FFFFFF;" parent="1" vertex="1">
          <mxGeometry x="4156.185511363636" y="1288.6471830985915" width="104.31818181818183" height="22.08450704225352" as="geometry" />
        </mxCell>
        <mxCell id="UcyLIDLAC5yHybt2mTLH-147" value="&lt;div style=&quot;text-align: start;&quot;&gt;&lt;span style=&quot;background-color: initial; text-wrap: nowrap;&quot;&gt;&lt;font face=&quot;Comic Sans MS&quot; style=&quot;font-size: 18px;&quot;&gt;&lt;b style=&quot;&quot;&gt;&lt;i style=&quot;&quot;&gt;Thomas&lt;/i&gt;&lt;/b&gt;&lt;/font&gt;&lt;/span&gt;&lt;/div&gt;" style="rounded=1;whiteSpace=wrap;html=1;fillColor=none;strokeColor=none;arcSize=10;container=0;fontColor=#FFFFFF;" parent="1" vertex="1">
          <mxGeometry x="4154.299090909091" y="1328.083802816901" width="104.31818181818183" height="22.08450704225352" as="geometry" />
        </mxCell>
        <mxCell id="UcyLIDLAC5yHybt2mTLH-148" value="&lt;div style=&quot;text-align: start;&quot;&gt;&lt;span style=&quot;background-color: initial; text-wrap: nowrap;&quot;&gt;&lt;font face=&quot;Comic Sans MS&quot; style=&quot;font-size: 18px;&quot;&gt;&lt;b style=&quot;&quot;&gt;&lt;i style=&quot;&quot;&gt;Lucas&lt;/i&gt;&lt;/b&gt;&lt;/font&gt;&lt;/span&gt;&lt;/div&gt;" style="rounded=1;whiteSpace=wrap;html=1;fillColor=none;strokeColor=none;arcSize=10;container=0;fontColor=#FFFFFF;" parent="1" vertex="1">
          <mxGeometry x="4305.169431818182" y="1291.4073239436616" width="104.31818181818183" height="22.08450704225352" as="geometry" />
        </mxCell>
        <mxCell id="UcyLIDLAC5yHybt2mTLH-149" value="&lt;div style=&quot;text-align: start;&quot;&gt;&lt;span style=&quot;background-color: initial; text-wrap: nowrap;&quot;&gt;&lt;font face=&quot;Comic Sans MS&quot; style=&quot;font-size: 18px;&quot;&gt;&lt;b style=&quot;&quot;&gt;&lt;i style=&quot;&quot;&gt;Pedro&lt;/i&gt;&lt;/b&gt;&lt;/font&gt;&lt;/span&gt;&lt;/div&gt;" style="rounded=1;whiteSpace=wrap;html=1;fillColor=none;strokeColor=none;arcSize=10;container=0;fontColor=#FFFFFF;" parent="1" vertex="1">
          <mxGeometry x="4303.469431818181" y="1332.4173239436618" width="104.31818181818183" height="22.08450704225352" as="geometry" />
        </mxCell>
        <mxCell id="UcyLIDLAC5yHybt2mTLH-152" value="" style="whiteSpace=wrap;html=1;shape=mxgraph.basic.pointed_oval;fillColor=#9933FF;strokeWidth=2;" parent="1" vertex="1">
          <mxGeometry x="4256.889999999999" y="1267.4499999999998" width="55.73" height="107" as="geometry" />
        </mxCell>
        <mxCell id="UcyLIDLAC5yHybt2mTLH-153" value="&lt;div style=&quot;text-align: start;&quot;&gt;&lt;span style=&quot;background-color: initial; text-wrap: nowrap;&quot;&gt;&lt;font color=&quot;#ffffff&quot; style=&quot;font-size: 18px;&quot; face=&quot;Comic Sans MS&quot;&gt;&lt;b style=&quot;&quot;&gt;&lt;i style=&quot;&quot;&gt;Eric&lt;/i&gt;&lt;/b&gt;&lt;/font&gt;&lt;/span&gt;&lt;/div&gt;" style="rounded=1;whiteSpace=wrap;html=1;fillColor=none;strokeColor=none;arcSize=10;container=0;" parent="1" vertex="1">
          <mxGeometry x="4272.275568181817" y="1307.9973239436622" width="26.079545454545457" height="22.08450704225352" as="geometry" />
        </mxCell>
        <mxCell id="UcyLIDLAC5yHybt2mTLH-173" value="&lt;font style=&quot;font-size: 16px;&quot; face=&quot;Comic Sans MS&quot;&gt;&lt;b style=&quot;&quot;&gt;&lt;font style=&quot;&quot;&gt;Union&amp;nbsp;&lt;/font&gt;&lt;span style=&quot;outline: none; scrollbar-color: rgba(80, 40, 140, 0.5) rgba(0, 0, 0, 0); font-variant-numeric: normal; font-variant-east-asian: normal; font-variant-alternates: normal; font-size-adjust: none; font-kerning: auto; font-optical-sizing: auto; font-feature-settings: normal; font-variation-settings: normal; font-variant-position: normal; font-stretch: normal; line-height: 1.2; text-rendering: auto; text-align: start; white-space-collapse: preserve;&quot; class=&quot;katex&quot;&gt;&lt;span style=&quot;outline: none; scrollbar-color: rgba(80, 40, 140, 0.5) rgba(0, 0, 0, 0);&quot; class=&quot;amber-el amber-bold&quot;&gt;(âˆª) &lt;/span&gt;&lt;span style=&quot;outline: none; scrollbar-color: rgba(80, 40, 140, 0.5) rgba(0, 0, 0, 0); border-color: currentcolor; position: relative; display: inline-block; white-space: nowrap; width: min-content;&quot; class=&quot;base&quot;&gt;&lt;span style=&quot;outline: none; scrollbar-color: rgba(80, 40, 140, 0.5) rgba(0, 0, 0, 0); border-color: currentcolor; font-style: italic;&quot; class=&quot;mord mathnormal&quot;&gt;A&lt;/span&gt;&lt;span style=&quot;outline: none; scrollbar-color: rgba(80, 40, 140, 0.5) rgba(0, 0, 0, 0); border-color: currentcolor; display: inline-block; margin-right: 0.2222em;&quot; class=&quot;mspace&quot;&gt;&lt;/span&gt;&lt;span style=&quot;outline: none; scrollbar-color: rgba(80, 40, 140, 0.5) rgba(0, 0, 0, 0); border-color: currentcolor;&quot; class=&quot;mbin&quot;&gt;âˆª&lt;/span&gt;&lt;span style=&quot;outline: none; scrollbar-color: rgba(80, 40, 140, 0.5) rgba(0, 0, 0, 0); border-color: currentcolor; display: inline-block; margin-right: 0.2222em;&quot; class=&quot;mspace&quot;&gt;&lt;/span&gt;&lt;/span&gt;&lt;span style=&quot;outline: none; scrollbar-color: rgba(80, 40, 140, 0.5) rgba(0, 0, 0, 0); border-color: currentcolor; position: relative; display: inline-block; white-space: nowrap; width: min-content;&quot; class=&quot;base&quot;&gt;&lt;span style=&quot;outline: none; scrollbar-color: rgba(80, 40, 140, 0.5) rgba(0, 0, 0, 0); border-color: currentcolor; display: inline-block; height: 0.6833em;&quot; class=&quot;strut&quot;&gt;&lt;/span&gt;&lt;span style=&quot;outline: none; scrollbar-color: rgba(80, 40, 140, 0.5) rgba(0, 0, 0, 0); border-color: currentcolor; font-style: italic; margin-right: 0.0502em;&quot; class=&quot;mord mathnormal&quot;&gt;B&lt;/span&gt;&lt;/span&gt;&lt;span style=&quot;outline: none; scrollbar-color: rgba(80, 40, 140, 0.5) rgba(0, 0, 0, 0); border: 0px; position: absolute; clip: rect(1px, 1px, 1px, 1px); padding: 0px; height: 1px; width: 1px; overflow: hidden;&quot; class=&quot;katex-mathml&quot;&gt;&lt;math xmlns=&quot;http://www.w3.org/1998/Math/MathML&quot;&gt;&lt;mrow&gt;&lt;mi&gt;A&lt;/mi&gt;&lt;mo&gt;âˆª&lt;/mo&gt;&lt;mi&gt;B&lt;/mi&gt;&lt;mo&gt;=&lt;/mo&gt;&lt;mrow&gt;&lt;mi&gt;a&lt;/mi&gt;&lt;mo separator=&quot;true&quot;&gt;,&lt;/mo&gt;&lt;mi&gt;b&lt;/mi&gt;&lt;mo separator=&quot;true&quot;&gt;,&lt;/mo&gt;&lt;mi&gt;c&lt;/mi&gt;&lt;mo separator=&quot;true&quot;&gt;,&lt;/mo&gt;&lt;mi&gt;d&lt;/mi&gt;&lt;mo separator=&quot;true&quot;&gt;,&lt;/mo&gt;&lt;mi&gt;e&lt;/mi&gt;&lt;mo separator=&quot;true&quot;&gt;,&lt;/mo&gt;&lt;mi&gt;f&lt;/mi&gt;&lt;mo separator=&quot;true&quot;&gt;,&lt;/mo&gt;&lt;mi&gt;g&lt;span style=&quot;outline: none; scrollbar-color: rgba(80, 40, 140, 0.5) rgba(0, 0, 0, 0); border-color: currentcolor; position: relative; display: inline-block; white-space: nowrap; width: min-content;&quot; class=&quot;base&quot;&gt;&lt;span style=&quot;outline: none; scrollbar-color: rgba(80, 40, 140, 0.5) rgba(0, 0, 0, 0); border-color: currentcolor; font-style: italic;&quot; class=&quot;mord mathnormal&quot;&gt;A&lt;/span&gt;&lt;span style=&quot;outline: none; scrollbar-color: rgba(80, 40, 140, 0.5) rgba(0, 0, 0, 0); border-color: currentcolor; display: inline-block; margin-right: 0.2222em;&quot; class=&quot;mspace&quot;&gt;&lt;/span&gt;&lt;span style=&quot;outline: none; scrollbar-color: rgba(80, 40, 140, 0.5) rgba(0, 0, 0, 0); border-color: currentcolor;&quot; class=&quot;mbin&quot;&gt;âˆª&lt;/span&gt;&lt;span style=&quot;outline: none; scrollbar-color: rgba(80, 40, 140, 0.5) rgba(0, 0, 0, 0); border-color: currentcolor; display: inline-block; margin-right: 0.2222em;&quot; class=&quot;mspace&quot;&gt;&lt;/span&gt;&lt;/span&gt;&lt;span style=&quot;outline: none; scrollbar-color: rgba(80, 40, 140, 0.5) rgba(0, 0, 0, 0); border-color: currentcolor; position: relative; display: inline-block; white-space: nowrap; width: min-content;&quot; class=&quot;base&quot;&gt;&lt;span style=&quot;outline: none; scrollbar-color: rgba(80, 40, 140, 0.5) rgba(0, 0, 0, 0); border-color: currentcolor; display: inline-block; height: 0.6833em;&quot; class=&quot;strut&quot;&gt;&lt;/span&gt;&lt;span style=&quot;outline: none; scrollbar-color: rgba(80, 40, 140, 0.5) rgba(0, 0, 0, 0); border-color: currentcolor; font-style: italic; margin-right: 0.0502em;&quot; class=&quot;mord mathnormal&quot;&gt;B&lt;/span&gt;&lt;/span&gt;&lt;/mi&gt;&lt;/mrow&gt;&lt;/mrow&gt;&lt;/math&gt;&lt;/span&gt;&lt;/span&gt;&lt;/b&gt;&lt;/font&gt;" style="rounded=1;whiteSpace=wrap;html=1;fillColor=#330066;strokeColor=none;fontColor=#FFFFFF;arcSize=10;container=0;" parent="1" vertex="1">
          <mxGeometry x="4162.6900000000005" y="1150" width="244.13" height="33" as="geometry" />
        </mxCell>
        <mxCell id="UcyLIDLAC5yHybt2mTLH-174" value="" style="rounded=1;whiteSpace=wrap;html=1;fillColor=#FFFFCC;strokeColor=default;arcSize=0;strokeWidth=2;container=0;" parent="1" vertex="1">
          <mxGeometry x="4509" y="1194" width="372" height="228.73" as="geometry" />
        </mxCell>
        <mxCell id="UcyLIDLAC5yHybt2mTLH-175" value="" style="ellipse;whiteSpace=wrap;html=1;aspect=fixed;fillStyle=auto;gradientColor=none;fillColor=#009900;shadow=0;strokeWidth=2;container=0;" parent="1" vertex="1">
          <mxGeometry x="4674.833181818181" y="1241.3232394366196" width="160.11267605633802" height="160.11267605633802" as="geometry" />
        </mxCell>
        <mxCell id="UcyLIDLAC5yHybt2mTLH-176" value="" style="ellipse;whiteSpace=wrap;html=1;aspect=fixed;fillStyle=auto;gradientColor=none;fillColor=#007FFF;shadow=0;strokeWidth=2;container=0;" parent="1" vertex="1">
          <mxGeometry x="4556.058238636363" y="1241.3232394366196" width="160.11267605633802" height="160.11267605633802" as="geometry" />
        </mxCell>
        <mxCell id="UcyLIDLAC5yHybt2mTLH-177" value="&lt;font face=&quot;Comic Sans MS&quot; style=&quot;font-size: 18px;&quot;&gt;&lt;b style=&quot;&quot;&gt;U&lt;/b&gt;&lt;/font&gt;" style="rounded=1;whiteSpace=wrap;html=1;fillColor=#FFFF00;strokeColor=none;fontColor=#000000;arcSize=20;container=0;" parent="1" vertex="1">
          <mxGeometry x="4518.08" y="1204" width="49.11" height="23.66" as="geometry" />
        </mxCell>
        <mxCell id="UcyLIDLAC5yHybt2mTLH-178" value="&lt;font face=&quot;Comic Sans MS&quot;&gt;&lt;b&gt;A&lt;/b&gt;&lt;/font&gt;" style="rounded=1;whiteSpace=wrap;html=1;fillColor=none;strokeColor=none;fontColor=#FFFFFF;arcSize=20;fontSize=18;container=0;" parent="1" vertex="1">
          <mxGeometry x="4623.074261363636" y="1249.2105633802817" width="26.079545454545457" height="23.661971830985912" as="geometry" />
        </mxCell>
        <mxCell id="UcyLIDLAC5yHybt2mTLH-179" value="&lt;font face=&quot;Comic Sans MS&quot;&gt;&lt;b&gt;B&lt;/b&gt;&lt;/font&gt;" style="rounded=1;whiteSpace=wrap;html=1;fillColor=none;strokeColor=none;fontColor=#FFFFFF;arcSize=20;fontSize=18;container=0;" parent="1" vertex="1">
          <mxGeometry x="4741.84659090909" y="1249.2105633802817" width="26.079545454545457" height="23.661971830985912" as="geometry" />
        </mxCell>
        <mxCell id="UcyLIDLAC5yHybt2mTLH-180" value="&lt;div style=&quot;text-align: start;&quot;&gt;&lt;span style=&quot;background-color: initial; text-wrap: nowrap;&quot;&gt;&lt;font face=&quot;Comic Sans MS&quot; style=&quot;font-size: 18px;&quot;&gt;&lt;b style=&quot;&quot;&gt;&lt;i style=&quot;&quot;&gt;Peter&lt;/i&gt;&lt;/b&gt;&lt;/font&gt;&lt;/span&gt;&lt;/div&gt;" style="rounded=1;whiteSpace=wrap;html=1;fillColor=none;strokeColor=none;arcSize=10;container=0;fontColor=#FFFFFF;" parent="1" vertex="1">
          <mxGeometry x="4567.185511363636" y="1288.6471830985915" width="104.31818181818183" height="22.08450704225352" as="geometry" />
        </mxCell>
        <mxCell id="UcyLIDLAC5yHybt2mTLH-181" value="&lt;div style=&quot;text-align: start;&quot;&gt;&lt;span style=&quot;background-color: initial; text-wrap: nowrap;&quot;&gt;&lt;font face=&quot;Comic Sans MS&quot; style=&quot;font-size: 18px;&quot;&gt;&lt;b style=&quot;&quot;&gt;&lt;i style=&quot;&quot;&gt;Thomas&lt;/i&gt;&lt;/b&gt;&lt;/font&gt;&lt;/span&gt;&lt;/div&gt;" style="rounded=1;whiteSpace=wrap;html=1;fillColor=none;strokeColor=none;arcSize=10;container=0;fontColor=#FFFFFF;" parent="1" vertex="1">
          <mxGeometry x="4565.29909090909" y="1328.083802816901" width="104.31818181818183" height="22.08450704225352" as="geometry" />
        </mxCell>
        <mxCell id="UcyLIDLAC5yHybt2mTLH-182" value="&lt;div style=&quot;text-align: start;&quot;&gt;&lt;span style=&quot;background-color: initial; text-wrap: nowrap;&quot;&gt;&lt;font face=&quot;Comic Sans MS&quot; style=&quot;font-size: 18px;&quot;&gt;&lt;b style=&quot;&quot;&gt;&lt;i style=&quot;&quot;&gt;Lucas&lt;/i&gt;&lt;/b&gt;&lt;/font&gt;&lt;/span&gt;&lt;/div&gt;" style="rounded=1;whiteSpace=wrap;html=1;fillColor=none;strokeColor=none;arcSize=10;container=0;fontColor=#FFFFFF;" parent="1" vertex="1">
          <mxGeometry x="4716.169431818182" y="1291.4073239436616" width="104.31818181818183" height="22.08450704225352" as="geometry" />
        </mxCell>
        <mxCell id="UcyLIDLAC5yHybt2mTLH-183" value="&lt;div style=&quot;text-align: start;&quot;&gt;&lt;span style=&quot;background-color: initial; text-wrap: nowrap;&quot;&gt;&lt;font face=&quot;Comic Sans MS&quot; style=&quot;font-size: 18px;&quot;&gt;&lt;b style=&quot;&quot;&gt;&lt;i style=&quot;&quot;&gt;Pedro&lt;/i&gt;&lt;/b&gt;&lt;/font&gt;&lt;/span&gt;&lt;/div&gt;" style="rounded=1;whiteSpace=wrap;html=1;fillColor=none;strokeColor=none;arcSize=10;container=0;fontColor=#FFFFFF;" parent="1" vertex="1">
          <mxGeometry x="4714.469431818181" y="1332.4173239436618" width="104.31818181818183" height="22.08450704225352" as="geometry" />
        </mxCell>
        <mxCell id="UcyLIDLAC5yHybt2mTLH-184" value="" style="whiteSpace=wrap;html=1;shape=mxgraph.basic.pointed_oval;fillColor=#9933FF;strokeWidth=2;" parent="1" vertex="1">
          <mxGeometry x="4667.889999999999" y="1267.4499999999998" width="55.73" height="107" as="geometry" />
        </mxCell>
        <mxCell id="UcyLIDLAC5yHybt2mTLH-185" value="&lt;div style=&quot;text-align: start;&quot;&gt;&lt;span style=&quot;background-color: initial; text-wrap: nowrap;&quot;&gt;&lt;font color=&quot;#ffffff&quot; style=&quot;font-size: 18px;&quot; face=&quot;Comic Sans MS&quot;&gt;&lt;b style=&quot;&quot;&gt;&lt;i style=&quot;&quot;&gt;Eric&lt;/i&gt;&lt;/b&gt;&lt;/font&gt;&lt;/span&gt;&lt;/div&gt;" style="rounded=1;whiteSpace=wrap;html=1;fillColor=none;strokeColor=none;arcSize=10;container=0;" parent="1" vertex="1">
          <mxGeometry x="4683.275568181817" y="1307.9973239436622" width="26.079545454545457" height="22.08450704225352" as="geometry" />
        </mxCell>
        <mxCell id="UcyLIDLAC5yHybt2mTLH-186" value="&lt;font style=&quot;font-size: 16px;&quot; face=&quot;Comic Sans MS&quot;&gt;&lt;b style=&quot;&quot;&gt;&lt;font style=&quot;&quot;&gt;Intersection&amp;nbsp;&lt;/font&gt;&lt;span style=&quot;text-align: start; white-space-collapse: preserve; outline: none; scrollbar-color: rgba(80, 40, 140, 0.5) rgba(0, 0, 0, 0);&quot; class=&quot;amber-el amber-bold&quot;&gt;(âˆ©) &lt;/span&gt;&lt;span style=&quot;outline: none; scrollbar-color: rgba(80, 40, 140, 0.5) rgba(0, 0, 0, 0); border-color: currentcolor; position: relative; display: inline-block; text-wrap: nowrap; width: min-content; text-align: start;&quot; class=&quot;base&quot;&gt;&lt;span style=&quot;outline: none; scrollbar-color: rgba(80, 40, 140, 0.5) rgba(0, 0, 0, 0); border-color: currentcolor; font-style: italic;&quot; class=&quot;mord mathnormal&quot;&gt;A&lt;/span&gt;&lt;span style=&quot;outline: none; scrollbar-color: rgba(80, 40, 140, 0.5) rgba(0, 0, 0, 0); border-color: currentcolor; display: inline-block; margin-right: 0.2222em;&quot; class=&quot;mspace&quot;&gt;&lt;/span&gt;&lt;span style=&quot;outline: none; scrollbar-color: rgba(80, 40, 140, 0.5) rgba(0, 0, 0, 0); border-color: currentcolor;&quot; class=&quot;mbin&quot;&gt;âˆ©&lt;/span&gt;&lt;span style=&quot;outline: none; scrollbar-color: rgba(80, 40, 140, 0.5) rgba(0, 0, 0, 0); border-color: currentcolor; display: inline-block; margin-right: 0.2222em;&quot; class=&quot;mspace&quot;&gt;&lt;/span&gt;&lt;/span&gt;&lt;span style=&quot;outline: none; scrollbar-color: rgba(80, 40, 140, 0.5) rgba(0, 0, 0, 0); border-color: currentcolor; position: relative; display: inline-block; text-wrap: nowrap; width: min-content; text-align: start;&quot; class=&quot;base&quot;&gt;&lt;span style=&quot;outline: none; scrollbar-color: rgba(80, 40, 140, 0.5) rgba(0, 0, 0, 0); border-color: currentcolor; display: inline-block; height: 0.6833em;&quot; class=&quot;strut&quot;&gt;&lt;/span&gt;&lt;span style=&quot;outline: none; scrollbar-color: rgba(80, 40, 140, 0.5) rgba(0, 0, 0, 0); border-color: currentcolor; font-style: italic; margin-right: 0.0502em;&quot; class=&quot;mord mathnormal&quot;&gt;B&lt;/span&gt;&lt;/span&gt;&lt;/b&gt;&lt;/font&gt;" style="rounded=1;whiteSpace=wrap;html=1;fillColor=#330066;strokeColor=none;fontColor=#FFFFFF;arcSize=10;container=0;" parent="1" vertex="1">
          <mxGeometry x="4560.49" y="1150" width="260" height="33" as="geometry" />
        </mxCell>
        <mxCell id="UcyLIDLAC5yHybt2mTLH-187" value="" style="rounded=1;whiteSpace=wrap;html=1;arcSize=18;strokeColor=none;fillColor=none;container=0;" parent="1" vertex="1">
          <mxGeometry x="3930" y="1154" width="153.86" height="870" as="geometry" />
        </mxCell>
        <mxCell id="UcyLIDLAC5yHybt2mTLH-188" value="" style="rounded=1;whiteSpace=wrap;html=1;arcSize=18;strokeColor=none;fillColor=none;container=0;" parent="1" vertex="1">
          <mxGeometry x="4899" y="1154" width="151" height="870" as="geometry" />
        </mxCell>
        <mxCell id="UcyLIDLAC5yHybt2mTLH-189" value="" style="rounded=1;whiteSpace=wrap;html=1;fillColor=#FFFFCC;strokeColor=default;arcSize=0;strokeWidth=2;container=0;" parent="1" vertex="1">
          <mxGeometry x="4098" y="1489.3200000000002" width="372" height="228.73" as="geometry" />
        </mxCell>
        <mxCell id="UcyLIDLAC5yHybt2mTLH-190" value="" style="ellipse;whiteSpace=wrap;html=1;aspect=fixed;fillStyle=auto;gradientColor=none;fillColor=#009900;shadow=0;strokeWidth=2;container=0;" parent="1" vertex="1">
          <mxGeometry x="4263.8331818181805" y="1536.6432394366198" width="160.11267605633802" height="160.11267605633802" as="geometry" />
        </mxCell>
        <mxCell id="UcyLIDLAC5yHybt2mTLH-191" value="" style="ellipse;whiteSpace=wrap;html=1;aspect=fixed;fillStyle=auto;gradientColor=none;fillColor=#9933FF;shadow=0;strokeWidth=2;container=0;" parent="1" vertex="1">
          <mxGeometry x="4145.058238636363" y="1536.6432394366198" width="160.11267605633802" height="160.11267605633802" as="geometry" />
        </mxCell>
        <mxCell id="UcyLIDLAC5yHybt2mTLH-192" value="&lt;font face=&quot;Comic Sans MS&quot; style=&quot;font-size: 18px;&quot;&gt;&lt;b style=&quot;&quot;&gt;U&lt;/b&gt;&lt;/font&gt;" style="rounded=1;whiteSpace=wrap;html=1;fillColor=#FFFF00;strokeColor=none;fontColor=#000000;arcSize=20;container=0;" parent="1" vertex="1">
          <mxGeometry x="4107.08" y="1499.3200000000002" width="49.11" height="23.66" as="geometry" />
        </mxCell>
        <mxCell id="UcyLIDLAC5yHybt2mTLH-193" value="&lt;font face=&quot;Comic Sans MS&quot;&gt;&lt;b&gt;A&lt;/b&gt;&lt;/font&gt;" style="rounded=1;whiteSpace=wrap;html=1;fillColor=none;strokeColor=none;fontColor=#FFFFFF;arcSize=20;fontSize=18;container=0;" parent="1" vertex="1">
          <mxGeometry x="4212.074261363636" y="1544.5305633802818" width="26.079545454545457" height="23.661971830985912" as="geometry" />
        </mxCell>
        <mxCell id="UcyLIDLAC5yHybt2mTLH-194" value="&lt;font face=&quot;Comic Sans MS&quot;&gt;&lt;b&gt;B&lt;/b&gt;&lt;/font&gt;" style="rounded=1;whiteSpace=wrap;html=1;fillColor=none;strokeColor=none;fontColor=#FFFFFF;arcSize=20;fontSize=18;container=0;" parent="1" vertex="1">
          <mxGeometry x="4330.84659090909" y="1544.5305633802818" width="26.079545454545457" height="23.661971830985912" as="geometry" />
        </mxCell>
        <mxCell id="UcyLIDLAC5yHybt2mTLH-195" value="&lt;div style=&quot;text-align: start;&quot;&gt;&lt;span style=&quot;background-color: initial; text-wrap: nowrap;&quot;&gt;&lt;font face=&quot;Comic Sans MS&quot; style=&quot;font-size: 18px;&quot;&gt;&lt;b style=&quot;&quot;&gt;&lt;i style=&quot;&quot;&gt;Peter&lt;/i&gt;&lt;/b&gt;&lt;/font&gt;&lt;/span&gt;&lt;/div&gt;" style="rounded=1;whiteSpace=wrap;html=1;fillColor=none;strokeColor=none;arcSize=10;container=0;fontColor=#FFFFFF;" parent="1" vertex="1">
          <mxGeometry x="4156.185511363636" y="1583.9671830985917" width="104.31818181818183" height="22.08450704225352" as="geometry" />
        </mxCell>
        <mxCell id="UcyLIDLAC5yHybt2mTLH-196" value="&lt;div style=&quot;text-align: start;&quot;&gt;&lt;span style=&quot;background-color: initial; text-wrap: nowrap;&quot;&gt;&lt;font face=&quot;Comic Sans MS&quot; style=&quot;font-size: 18px;&quot;&gt;&lt;b style=&quot;&quot;&gt;&lt;i style=&quot;&quot;&gt;Thomas&lt;/i&gt;&lt;/b&gt;&lt;/font&gt;&lt;/span&gt;&lt;/div&gt;" style="rounded=1;whiteSpace=wrap;html=1;fillColor=none;strokeColor=none;arcSize=10;container=0;fontColor=#FFFFFF;" parent="1" vertex="1">
          <mxGeometry x="4154.29909090909" y="1623.4038028169011" width="104.31818181818183" height="22.08450704225352" as="geometry" />
        </mxCell>
        <mxCell id="UcyLIDLAC5yHybt2mTLH-197" value="&lt;div style=&quot;text-align: start;&quot;&gt;&lt;span style=&quot;background-color: initial; text-wrap: nowrap;&quot;&gt;&lt;font face=&quot;Comic Sans MS&quot; style=&quot;font-size: 18px;&quot;&gt;&lt;b style=&quot;&quot;&gt;&lt;i style=&quot;&quot;&gt;Lucas&lt;/i&gt;&lt;/b&gt;&lt;/font&gt;&lt;/span&gt;&lt;/div&gt;" style="rounded=1;whiteSpace=wrap;html=1;fillColor=none;strokeColor=none;arcSize=10;container=0;fontColor=#FFFFFF;" parent="1" vertex="1">
          <mxGeometry x="4305.169431818181" y="1586.7273239436618" width="104.31818181818183" height="22.08450704225352" as="geometry" />
        </mxCell>
        <mxCell id="UcyLIDLAC5yHybt2mTLH-198" value="&lt;div style=&quot;text-align: start;&quot;&gt;&lt;span style=&quot;background-color: initial; text-wrap: nowrap;&quot;&gt;&lt;font face=&quot;Comic Sans MS&quot; style=&quot;font-size: 18px;&quot;&gt;&lt;b style=&quot;&quot;&gt;&lt;i style=&quot;&quot;&gt;Pedro&lt;/i&gt;&lt;/b&gt;&lt;/font&gt;&lt;/span&gt;&lt;/div&gt;" style="rounded=1;whiteSpace=wrap;html=1;fillColor=none;strokeColor=none;arcSize=10;container=0;fontColor=#FFFFFF;" parent="1" vertex="1">
          <mxGeometry x="4303.469431818181" y="1627.737323943662" width="104.31818181818183" height="22.08450704225352" as="geometry" />
        </mxCell>
        <mxCell id="UcyLIDLAC5yHybt2mTLH-199" value="" style="whiteSpace=wrap;html=1;shape=mxgraph.basic.pointed_oval;fillColor=#00FFFF;strokeWidth=2;fontColor=#000000;" parent="1" vertex="1">
          <mxGeometry x="4256.889999999999" y="1562.77" width="55.73" height="107" as="geometry" />
        </mxCell>
        <mxCell id="UcyLIDLAC5yHybt2mTLH-200" value="&lt;div style=&quot;text-align: start;&quot;&gt;&lt;span style=&quot;background-color: initial; text-wrap: nowrap;&quot;&gt;&lt;font style=&quot;font-size: 18px;&quot; face=&quot;Comic Sans MS&quot;&gt;&lt;b style=&quot;&quot;&gt;&lt;i style=&quot;&quot;&gt;Eric&lt;/i&gt;&lt;/b&gt;&lt;/font&gt;&lt;/span&gt;&lt;/div&gt;" style="rounded=1;whiteSpace=wrap;html=1;fillColor=none;strokeColor=none;arcSize=10;container=0;" parent="1" vertex="1">
          <mxGeometry x="4272.275568181817" y="1603.3173239436624" width="26.079545454545457" height="22.08450704225352" as="geometry" />
        </mxCell>
        <mxCell id="UcyLIDLAC5yHybt2mTLH-201" value="&lt;b&gt;&lt;font face=&quot;Comic Sans MS&quot; style=&quot;font-size: 16px;&quot;&gt;Difference (-)&amp;nbsp;&lt;span style=&quot;outline: none; scrollbar-color: rgba(80, 40, 140, 0.5) rgba(0, 0, 0, 0); font-variant-numeric: normal; font-variant-east-asian: normal; font-variant-alternates: normal; font-size-adjust: none; font-kerning: auto; font-optical-sizing: auto; font-feature-settings: normal; font-variation-settings: normal; font-variant-position: normal; font-stretch: normal; line-height: 1.2; text-rendering: auto; text-align: start; white-space-collapse: preserve;&quot; class=&quot;katex&quot;&gt;&lt;span style=&quot;outline: none; scrollbar-color: rgba(80, 40, 140, 0.5) rgba(0, 0, 0, 0); border-color: currentcolor;&quot; aria-hidden=&quot;true&quot; class=&quot;katex-html&quot;&gt;&lt;span style=&quot;outline: none; scrollbar-color: rgba(80, 40, 140, 0.5) rgba(0, 0, 0, 0); border-color: currentcolor; position: relative; display: inline-block; white-space: nowrap; width: min-content;&quot; class=&quot;base&quot;&gt;&lt;span style=&quot;outline: none; scrollbar-color: rgba(80, 40, 140, 0.5) rgba(0, 0, 0, 0); border-color: currentcolor; font-style: italic;&quot; class=&quot;mord mathnormal&quot;&gt;A&lt;/span&gt;&lt;span style=&quot;outline: none; scrollbar-color: rgba(80, 40, 140, 0.5) rgba(0, 0, 0, 0); border-color: currentcolor; display: inline-block; margin-right: 0.2222em;&quot; class=&quot;mspace&quot;&gt;&lt;/span&gt;&lt;span style=&quot;outline: none; scrollbar-color: rgba(80, 40, 140, 0.5) rgba(0, 0, 0, 0); border-color: currentcolor;&quot; class=&quot;mbin&quot;&gt;âˆ’&lt;/span&gt;&lt;span style=&quot;outline: none; scrollbar-color: rgba(80, 40, 140, 0.5) rgba(0, 0, 0, 0); border-color: currentcolor; display: inline-block; margin-right: 0.2222em;&quot; class=&quot;mspace&quot;&gt;&lt;/span&gt;&lt;/span&gt;&lt;span style=&quot;outline: none; scrollbar-color: rgba(80, 40, 140, 0.5) rgba(0, 0, 0, 0); border-color: currentcolor; position: relative; display: inline-block; white-space: nowrap; width: min-content;&quot; class=&quot;base&quot;&gt;&lt;span style=&quot;outline: none; scrollbar-color: rgba(80, 40, 140, 0.5) rgba(0, 0, 0, 0); border-color: currentcolor; display: inline-block; height: 0.6833em;&quot; class=&quot;strut&quot;&gt;&lt;/span&gt;&lt;span style=&quot;outline: none; scrollbar-color: rgba(80, 40, 140, 0.5) rgba(0, 0, 0, 0); border-color: currentcolor; font-style: italic; margin-right: 0.0502em;&quot; class=&quot;mord mathnormal&quot;&gt;B&lt;/span&gt;&lt;/span&gt;&lt;/span&gt;&lt;/span&gt;&lt;span style=&quot;text-align: start; white-space-collapse: preserve;&quot;&gt; &lt;/span&gt;&lt;/font&gt;&lt;/b&gt;" style="rounded=1;whiteSpace=wrap;html=1;fillColor=#330066;strokeColor=none;fontColor=#FFFFFF;arcSize=10;container=0;" parent="1" vertex="1">
          <mxGeometry x="4167.43" y="1446" width="233.13" height="33" as="geometry" />
        </mxCell>
        <mxCell id="UcyLIDLAC5yHybt2mTLH-202" value="" style="rounded=1;whiteSpace=wrap;html=1;fillColor=#FFFFCC;strokeColor=default;arcSize=0;strokeWidth=2;container=0;" parent="1" vertex="1">
          <mxGeometry x="4508.999999999999" y="1489.3200000000002" width="372" height="228.73" as="geometry" />
        </mxCell>
        <mxCell id="UcyLIDLAC5yHybt2mTLH-203" value="" style="ellipse;whiteSpace=wrap;html=1;aspect=fixed;fillStyle=auto;gradientColor=none;fillColor=#7F00FF;shadow=0;strokeWidth=2;container=0;" parent="1" vertex="1">
          <mxGeometry x="4674.8331818181805" y="1536.6432394366198" width="160.11267605633802" height="160.11267605633802" as="geometry" />
        </mxCell>
        <mxCell id="UcyLIDLAC5yHybt2mTLH-204" value="" style="ellipse;whiteSpace=wrap;html=1;aspect=fixed;fillStyle=auto;gradientColor=none;fillColor=#7F00FF;shadow=0;strokeWidth=2;container=0;" parent="1" vertex="1">
          <mxGeometry x="4556.058238636363" y="1536.6432394366198" width="160.11267605633802" height="160.11267605633802" as="geometry" />
        </mxCell>
        <mxCell id="UcyLIDLAC5yHybt2mTLH-205" value="&lt;font face=&quot;Comic Sans MS&quot; style=&quot;font-size: 18px;&quot;&gt;&lt;b style=&quot;&quot;&gt;U&lt;/b&gt;&lt;/font&gt;" style="rounded=1;whiteSpace=wrap;html=1;fillColor=#FFFF00;strokeColor=none;fontColor=#000000;arcSize=20;container=0;" parent="1" vertex="1">
          <mxGeometry x="4518.079999999999" y="1499.3200000000002" width="49.11" height="23.66" as="geometry" />
        </mxCell>
        <mxCell id="UcyLIDLAC5yHybt2mTLH-206" value="&lt;font face=&quot;Comic Sans MS&quot;&gt;&lt;b&gt;A&lt;/b&gt;&lt;/font&gt;" style="rounded=1;whiteSpace=wrap;html=1;fillColor=none;strokeColor=none;fontColor=#FFFFFF;arcSize=20;fontSize=18;container=0;" parent="1" vertex="1">
          <mxGeometry x="4623.074261363636" y="1544.5305633802818" width="26.079545454545457" height="23.661971830985912" as="geometry" />
        </mxCell>
        <mxCell id="UcyLIDLAC5yHybt2mTLH-207" value="&lt;font face=&quot;Comic Sans MS&quot;&gt;&lt;b&gt;B&lt;/b&gt;&lt;/font&gt;" style="rounded=1;whiteSpace=wrap;html=1;fillColor=none;strokeColor=none;fontColor=#FFFFFF;arcSize=20;fontSize=18;container=0;" parent="1" vertex="1">
          <mxGeometry x="4741.84659090909" y="1544.5305633802818" width="26.079545454545457" height="23.661971830985912" as="geometry" />
        </mxCell>
        <mxCell id="UcyLIDLAC5yHybt2mTLH-208" value="&lt;div style=&quot;text-align: start;&quot;&gt;&lt;span style=&quot;background-color: initial; text-wrap: nowrap;&quot;&gt;&lt;font face=&quot;Comic Sans MS&quot; style=&quot;font-size: 18px;&quot;&gt;&lt;b style=&quot;&quot;&gt;&lt;i style=&quot;&quot;&gt;Peter&lt;/i&gt;&lt;/b&gt;&lt;/font&gt;&lt;/span&gt;&lt;/div&gt;" style="rounded=1;whiteSpace=wrap;html=1;fillColor=none;strokeColor=none;arcSize=10;container=0;fontColor=#FFFFFF;" parent="1" vertex="1">
          <mxGeometry x="4567.185511363636" y="1583.9671830985917" width="104.31818181818183" height="22.08450704225352" as="geometry" />
        </mxCell>
        <mxCell id="UcyLIDLAC5yHybt2mTLH-209" value="&lt;div style=&quot;text-align: start;&quot;&gt;&lt;span style=&quot;background-color: initial; text-wrap: nowrap;&quot;&gt;&lt;font face=&quot;Comic Sans MS&quot; style=&quot;font-size: 18px;&quot;&gt;&lt;b style=&quot;&quot;&gt;&lt;i style=&quot;&quot;&gt;Thomas&lt;/i&gt;&lt;/b&gt;&lt;/font&gt;&lt;/span&gt;&lt;/div&gt;" style="rounded=1;whiteSpace=wrap;html=1;fillColor=none;strokeColor=none;arcSize=10;container=0;fontColor=#FFFFFF;" parent="1" vertex="1">
          <mxGeometry x="4565.29909090909" y="1623.4038028169011" width="104.31818181818183" height="22.08450704225352" as="geometry" />
        </mxCell>
        <mxCell id="UcyLIDLAC5yHybt2mTLH-210" value="&lt;div style=&quot;text-align: start;&quot;&gt;&lt;span style=&quot;background-color: initial; text-wrap: nowrap;&quot;&gt;&lt;font face=&quot;Comic Sans MS&quot; style=&quot;font-size: 18px;&quot;&gt;&lt;b style=&quot;&quot;&gt;&lt;i style=&quot;&quot;&gt;Lucas&lt;/i&gt;&lt;/b&gt;&lt;/font&gt;&lt;/span&gt;&lt;/div&gt;" style="rounded=1;whiteSpace=wrap;html=1;fillColor=none;strokeColor=none;arcSize=10;container=0;fontColor=#FFFFFF;" parent="1" vertex="1">
          <mxGeometry x="4716.169431818181" y="1586.7273239436618" width="104.31818181818183" height="22.08450704225352" as="geometry" />
        </mxCell>
        <mxCell id="UcyLIDLAC5yHybt2mTLH-211" value="&lt;div style=&quot;text-align: start;&quot;&gt;&lt;span style=&quot;background-color: initial; text-wrap: nowrap;&quot;&gt;&lt;font face=&quot;Comic Sans MS&quot; style=&quot;font-size: 18px;&quot;&gt;&lt;b style=&quot;&quot;&gt;&lt;i style=&quot;&quot;&gt;Pedro&lt;/i&gt;&lt;/b&gt;&lt;/font&gt;&lt;/span&gt;&lt;/div&gt;" style="rounded=1;whiteSpace=wrap;html=1;fillColor=none;strokeColor=none;arcSize=10;container=0;fontColor=#FFFFFF;" parent="1" vertex="1">
          <mxGeometry x="4714.469431818181" y="1627.737323943662" width="104.31818181818183" height="22.08450704225352" as="geometry" />
        </mxCell>
        <mxCell id="UcyLIDLAC5yHybt2mTLH-212" value="" style="whiteSpace=wrap;html=1;shape=mxgraph.basic.pointed_oval;fillColor=#00FFFF;strokeWidth=2;fontColor=#000000;" parent="1" vertex="1">
          <mxGeometry x="4667.889999999999" y="1562.77" width="55.73" height="107" as="geometry" />
        </mxCell>
        <mxCell id="UcyLIDLAC5yHybt2mTLH-213" value="&lt;div style=&quot;text-align: start;&quot;&gt;&lt;span style=&quot;background-color: initial; text-wrap: nowrap;&quot;&gt;&lt;font style=&quot;font-size: 18px;&quot; face=&quot;Comic Sans MS&quot;&gt;&lt;b style=&quot;&quot;&gt;&lt;i style=&quot;&quot;&gt;Eric&lt;/i&gt;&lt;/b&gt;&lt;/font&gt;&lt;/span&gt;&lt;/div&gt;" style="rounded=1;whiteSpace=wrap;html=1;fillColor=none;strokeColor=none;arcSize=10;container=0;" parent="1" vertex="1">
          <mxGeometry x="4683.275568181817" y="1603.3173239436624" width="26.079545454545457" height="22.08450704225352" as="geometry" />
        </mxCell>
        <mxCell id="UcyLIDLAC5yHybt2mTLH-214" value="&lt;font style=&quot;font-size: 16px;&quot; face=&quot;Comic Sans MS&quot;&gt;&lt;b style=&quot;&quot;&gt;&lt;span style=&quot;outline: none; scrollbar-color: rgba(80, 40, 140, 0.5) rgba(0, 0, 0, 0); text-align: start; white-space-collapse: preserve;&quot; class=&quot;amber-el amber-bold&quot;&gt;Symmetric Difference (&lt;span style=&quot;outline: none; scrollbar-color: rgba(80, 40, 140, 0.5) rgba(0, 0, 0, 0); font-variant-numeric: normal; font-variant-east-asian: normal; font-variant-alternates: normal; font-size-adjust: none; font-kerning: auto; font-optical-sizing: auto; font-feature-settings: normal; font-variation-settings: normal; font-variant-position: normal; font-stretch: normal; line-height: 1.2; text-rendering: auto;&quot; class=&quot;katex&quot;&gt;&lt;span style=&quot;outline: none; scrollbar-color: rgba(80, 40, 140, 0.5) rgba(0, 0, 0, 0); border: 0px; position: absolute; clip: rect(1px, 1px, 1px, 1px); padding: 0px; height: 1px; width: 1px; overflow: hidden;&quot; class=&quot;katex-mathml&quot;&gt;&lt;math xmlns=&quot;http://www.w3.org/1998/Math/MathML&quot;&gt;&lt;mrow&gt;&lt;mi mathvariant=&quot;normal&quot;&gt;Î”&lt;/mi&gt;&lt;/mrow&gt;&lt;/math&gt;&lt;/span&gt;&lt;span style=&quot;outline: none; scrollbar-color: rgba(80, 40, 140, 0.5) rgba(0, 0, 0, 0); border-color: currentcolor;&quot; aria-hidden=&quot;true&quot; class=&quot;katex-html&quot;&gt;&lt;span style=&quot;outline: none; scrollbar-color: rgba(80, 40, 140, 0.5) rgba(0, 0, 0, 0); border-color: currentcolor; position: relative; display: inline-block; white-space: nowrap; width: min-content;&quot; class=&quot;base&quot;&gt;&lt;span style=&quot;outline: none; scrollbar-color: rgba(80, 40, 140, 0.5) rgba(0, 0, 0, 0); border-color: currentcolor; display: inline-block; height: 0.6833em;&quot; class=&quot;strut&quot;&gt;&lt;/span&gt;&lt;span style=&quot;outline: none; scrollbar-color: rgba(80, 40, 140, 0.5) rgba(0, 0, 0, 0); border-color: currentcolor;&quot; class=&quot;mord&quot;&gt;Î”&lt;/span&gt;&lt;/span&gt;&lt;/span&gt;&lt;/span&gt;) &lt;/span&gt;&lt;span style=&quot;outline: none; scrollbar-color: rgba(80, 40, 140, 0.5) rgba(0, 0, 0, 0); border-color: currentcolor; font-style: italic; text-align: start; text-wrap: nowrap;&quot; class=&quot;mord mathnormal&quot;&gt;A&lt;/span&gt;&lt;span style=&quot;outline: none; scrollbar-color: rgba(80, 40, 140, 0.5) rgba(0, 0, 0, 0); border-color: currentcolor; text-align: start; text-wrap: nowrap;&quot; class=&quot;mord&quot;&gt;Î”&lt;/span&gt;&lt;span style=&quot;outline: none; scrollbar-color: rgba(80, 40, 140, 0.5) rgba(0, 0, 0, 0); border-color: currentcolor; font-style: italic; text-align: start; text-wrap: nowrap; margin-right: 0.0502em;&quot; class=&quot;mord mathnormal&quot;&gt;B&lt;/span&gt;&lt;/b&gt;&lt;/font&gt;" style="rounded=1;whiteSpace=wrap;html=1;fillColor=#330066;strokeColor=none;fontColor=#FFFFFF;arcSize=10;container=0;" parent="1" vertex="1">
          <mxGeometry x="4540.32" y="1446" width="309.36" height="33" as="geometry" />
        </mxCell>
        <mxCell id="UcyLIDLAC5yHybt2mTLH-219" value="" style="rounded=1;whiteSpace=wrap;html=1;fillColor=#9933FF;strokeColor=default;arcSize=0;strokeWidth=2;container=0;" parent="1" vertex="1">
          <mxGeometry x="4098" y="1789.3200000000002" width="372" height="228.73" as="geometry" />
        </mxCell>
        <mxCell id="UcyLIDLAC5yHybt2mTLH-220" value="" style="ellipse;whiteSpace=wrap;html=1;aspect=fixed;fillStyle=auto;gradientColor=none;fillColor=#009900;shadow=0;strokeWidth=2;container=0;" parent="1" vertex="1">
          <mxGeometry x="4263.8331818181805" y="1836.6432394366198" width="160.11267605633802" height="160.11267605633802" as="geometry" />
        </mxCell>
        <mxCell id="UcyLIDLAC5yHybt2mTLH-221" value="" style="ellipse;whiteSpace=wrap;html=1;aspect=fixed;fillStyle=auto;gradientColor=none;fillColor=#9933FF;shadow=0;strokeWidth=2;container=0;" parent="1" vertex="1">
          <mxGeometry x="4145.058238636363" y="1836.6432394366198" width="160.11267605633802" height="160.11267605633802" as="geometry" />
        </mxCell>
        <mxCell id="UcyLIDLAC5yHybt2mTLH-222" value="&lt;font face=&quot;Comic Sans MS&quot; style=&quot;font-size: 18px;&quot;&gt;&lt;b style=&quot;&quot;&gt;U&lt;/b&gt;&lt;/font&gt;" style="rounded=1;whiteSpace=wrap;html=1;fillColor=#FFFF00;strokeColor=none;fontColor=#000000;arcSize=20;container=0;" parent="1" vertex="1">
          <mxGeometry x="4107.08" y="1799.3200000000002" width="49.11" height="23.66" as="geometry" />
        </mxCell>
        <mxCell id="UcyLIDLAC5yHybt2mTLH-223" value="&lt;font face=&quot;Comic Sans MS&quot;&gt;&lt;b&gt;A&lt;/b&gt;&lt;/font&gt;" style="rounded=1;whiteSpace=wrap;html=1;fillColor=none;strokeColor=none;fontColor=#FFFFFF;arcSize=20;fontSize=18;container=0;" parent="1" vertex="1">
          <mxGeometry x="4212.074261363636" y="1844.5305633802818" width="26.079545454545457" height="23.661971830985912" as="geometry" />
        </mxCell>
        <mxCell id="UcyLIDLAC5yHybt2mTLH-224" value="&lt;font face=&quot;Comic Sans MS&quot;&gt;&lt;b&gt;B&lt;/b&gt;&lt;/font&gt;" style="rounded=1;whiteSpace=wrap;html=1;fillColor=none;strokeColor=none;fontColor=#FFFFFF;arcSize=20;fontSize=18;container=0;" parent="1" vertex="1">
          <mxGeometry x="4330.84659090909" y="1844.5305633802818" width="26.079545454545457" height="23.661971830985912" as="geometry" />
        </mxCell>
        <mxCell id="UcyLIDLAC5yHybt2mTLH-225" value="&lt;div style=&quot;text-align: start;&quot;&gt;&lt;span style=&quot;background-color: initial; text-wrap: nowrap;&quot;&gt;&lt;font face=&quot;Comic Sans MS&quot; style=&quot;font-size: 18px;&quot;&gt;&lt;b style=&quot;&quot;&gt;&lt;i style=&quot;&quot;&gt;Peter&lt;/i&gt;&lt;/b&gt;&lt;/font&gt;&lt;/span&gt;&lt;/div&gt;" style="rounded=1;whiteSpace=wrap;html=1;fillColor=none;strokeColor=none;arcSize=10;container=0;fontColor=#FFFFFF;" parent="1" vertex="1">
          <mxGeometry x="4156.185511363636" y="1883.9671830985917" width="104.31818181818183" height="22.08450704225352" as="geometry" />
        </mxCell>
        <mxCell id="UcyLIDLAC5yHybt2mTLH-226" value="&lt;div style=&quot;text-align: start;&quot;&gt;&lt;span style=&quot;background-color: initial; text-wrap: nowrap;&quot;&gt;&lt;font face=&quot;Comic Sans MS&quot; style=&quot;font-size: 18px;&quot;&gt;&lt;b style=&quot;&quot;&gt;&lt;i style=&quot;&quot;&gt;Thomas&lt;/i&gt;&lt;/b&gt;&lt;/font&gt;&lt;/span&gt;&lt;/div&gt;" style="rounded=1;whiteSpace=wrap;html=1;fillColor=none;strokeColor=none;arcSize=10;container=0;fontColor=#FFFFFF;" parent="1" vertex="1">
          <mxGeometry x="4154.29909090909" y="1923.4038028169011" width="104.31818181818183" height="22.08450704225352" as="geometry" />
        </mxCell>
        <mxCell id="UcyLIDLAC5yHybt2mTLH-227" value="&lt;div style=&quot;text-align: start;&quot;&gt;&lt;span style=&quot;background-color: initial; text-wrap: nowrap;&quot;&gt;&lt;font face=&quot;Comic Sans MS&quot; style=&quot;font-size: 18px;&quot;&gt;&lt;b style=&quot;&quot;&gt;&lt;i style=&quot;&quot;&gt;Lucas&lt;/i&gt;&lt;/b&gt;&lt;/font&gt;&lt;/span&gt;&lt;/div&gt;" style="rounded=1;whiteSpace=wrap;html=1;fillColor=none;strokeColor=none;arcSize=10;container=0;fontColor=#FFFFFF;" parent="1" vertex="1">
          <mxGeometry x="4305.169431818181" y="1886.7273239436618" width="104.31818181818183" height="22.08450704225352" as="geometry" />
        </mxCell>
        <mxCell id="UcyLIDLAC5yHybt2mTLH-228" value="&lt;div style=&quot;text-align: start;&quot;&gt;&lt;span style=&quot;background-color: initial; text-wrap: nowrap;&quot;&gt;&lt;font face=&quot;Comic Sans MS&quot; style=&quot;font-size: 18px;&quot;&gt;&lt;b style=&quot;&quot;&gt;&lt;i style=&quot;&quot;&gt;Pedro&lt;/i&gt;&lt;/b&gt;&lt;/font&gt;&lt;/span&gt;&lt;/div&gt;" style="rounded=1;whiteSpace=wrap;html=1;fillColor=none;strokeColor=none;arcSize=10;container=0;fontColor=#FFFFFF;" parent="1" vertex="1">
          <mxGeometry x="4303.469431818181" y="1927.737323943662" width="104.31818181818183" height="22.08450704225352" as="geometry" />
        </mxCell>
        <mxCell id="UcyLIDLAC5yHybt2mTLH-229" value="" style="whiteSpace=wrap;html=1;shape=mxgraph.basic.pointed_oval;fillColor=#00FFFF;strokeWidth=2;fontColor=#000000;" parent="1" vertex="1">
          <mxGeometry x="4256.889999999999" y="1862.77" width="55.73" height="107" as="geometry" />
        </mxCell>
        <mxCell id="UcyLIDLAC5yHybt2mTLH-230" value="&lt;div style=&quot;text-align: start;&quot;&gt;&lt;span style=&quot;background-color: initial; text-wrap: nowrap;&quot;&gt;&lt;font style=&quot;font-size: 18px;&quot; face=&quot;Comic Sans MS&quot;&gt;&lt;b style=&quot;&quot;&gt;&lt;i style=&quot;&quot;&gt;Eric&lt;/i&gt;&lt;/b&gt;&lt;/font&gt;&lt;/span&gt;&lt;/div&gt;" style="rounded=1;whiteSpace=wrap;html=1;fillColor=none;strokeColor=none;arcSize=10;container=0;" parent="1" vertex="1">
          <mxGeometry x="4272.275568181817" y="1903.3173239436624" width="26.079545454545457" height="22.08450704225352" as="geometry" />
        </mxCell>
        <mxCell id="UcyLIDLAC5yHybt2mTLH-231" value="&lt;h2 style=&quot;outline: none; scrollbar-color: rgba(80, 40, 140, 0.5) rgba(0, 0, 0, 0); font-weight: normal; position: relative; white-space-collapse: preserve; word-break: break-word; font-size: 21px; margin-top: 0px; margin-bottom: 0px; text-align: start;&quot; class=&quot;amber-el amber-heading amber-content&quot;&gt;Compliment &lt;b style=&quot;outline: none; scrollbar-color: rgba(80, 40, 140, 0.5) rgba(0, 0, 0, 0);&quot; class=&quot;amber-el amber-bold&quot;&gt;( c ) B^c&lt;/b&gt;&lt;/h2&gt;" style="rounded=1;whiteSpace=wrap;html=1;fillColor=#330066;strokeColor=none;fontColor=#FFFFFF;arcSize=10;container=0;fontFamily=Comic Sans MS;" parent="1" vertex="1">
          <mxGeometry x="4167.43" y="1746" width="233.13" height="33" as="geometry" />
        </mxCell>
        <mxCell id="F8xEr5KseKwtPBaZ8XjF-1" value="" style="rounded=1;whiteSpace=wrap;html=1;fillColor=#FFFFCC;strokeColor=default;arcSize=0;strokeWidth=2;container=0;" vertex="1" parent="1">
          <mxGeometry x="4098" y="2234" width="372" height="228.73" as="geometry" />
        </mxCell>
        <mxCell id="F8xEr5KseKwtPBaZ8XjF-2" value="" style="ellipse;whiteSpace=wrap;html=1;aspect=fixed;fillStyle=auto;gradientColor=none;fillColor=#009900;shadow=0;strokeWidth=2;container=0;" vertex="1" parent="1">
          <mxGeometry x="4263.833181818181" y="2281.3232394366196" width="160.11267605633802" height="160.11267605633802" as="geometry" />
        </mxCell>
        <mxCell id="F8xEr5KseKwtPBaZ8XjF-3" value="" style="ellipse;whiteSpace=wrap;html=1;aspect=fixed;fillStyle=auto;gradientColor=none;fillColor=#007FFF;shadow=0;strokeWidth=2;container=0;" vertex="1" parent="1">
          <mxGeometry x="4145.058238636364" y="2281.3232394366196" width="160.11267605633802" height="160.11267605633802" as="geometry" />
        </mxCell>
        <mxCell id="F8xEr5KseKwtPBaZ8XjF-4" value="&lt;font face=&quot;Comic Sans MS&quot; style=&quot;font-size: 18px;&quot;&gt;&lt;b style=&quot;&quot;&gt;U&lt;/b&gt;&lt;/font&gt;" style="rounded=1;whiteSpace=wrap;html=1;fillColor=#FFFF00;strokeColor=none;fontColor=#000000;arcSize=20;container=0;" vertex="1" parent="1">
          <mxGeometry x="4107.08" y="2244" width="49.11" height="23.66" as="geometry" />
        </mxCell>
        <mxCell id="F8xEr5KseKwtPBaZ8XjF-5" value="&lt;font face=&quot;Comic Sans MS&quot;&gt;&lt;b&gt;A&lt;/b&gt;&lt;/font&gt;" style="rounded=1;whiteSpace=wrap;html=1;fillColor=none;strokeColor=none;fontColor=#FFFFFF;arcSize=20;fontSize=18;container=0;" vertex="1" parent="1">
          <mxGeometry x="4212.074261363636" y="2289.2105633802817" width="26.079545454545457" height="23.661971830985912" as="geometry" />
        </mxCell>
        <mxCell id="F8xEr5KseKwtPBaZ8XjF-6" value="&lt;font face=&quot;Comic Sans MS&quot;&gt;&lt;b&gt;B&lt;/b&gt;&lt;/font&gt;" style="rounded=1;whiteSpace=wrap;html=1;fillColor=none;strokeColor=none;fontColor=#FFFFFF;arcSize=20;fontSize=18;container=0;" vertex="1" parent="1">
          <mxGeometry x="4330.84659090909" y="2289.2105633802817" width="26.079545454545457" height="23.661971830985912" as="geometry" />
        </mxCell>
        <mxCell id="F8xEr5KseKwtPBaZ8XjF-11" value="" style="whiteSpace=wrap;html=1;shape=mxgraph.basic.pointed_oval;fillColor=#CC00CC;strokeWidth=2;" vertex="1" parent="1">
          <mxGeometry x="4256.889999999999" y="2307.45" width="55.73" height="107" as="geometry" />
        </mxCell>
        <mxCell id="F8xEr5KseKwtPBaZ8XjF-13" value="A âˆ© BÌ„" style="rounded=1;whiteSpace=wrap;html=1;fillColor=#CC00CC;strokeColor=none;fontColor=#FFFFFF;arcSize=10;container=0;fontFamily=Comic Sans MS;fontSize=16;fontStyle=1" vertex="1" parent="1">
          <mxGeometry x="4162.6900000000005" y="2190" width="244.13" height="33" as="geometry" />
        </mxCell>
        <mxCell id="F8xEr5KseKwtPBaZ8XjF-14" value="" style="rounded=1;whiteSpace=wrap;html=1;fillColor=#FFFFCC;strokeColor=default;arcSize=0;strokeWidth=2;container=0;" vertex="1" parent="1">
          <mxGeometry x="4567.570000000001" y="2234" width="372" height="228.73" as="geometry" />
        </mxCell>
        <mxCell id="F8xEr5KseKwtPBaZ8XjF-15" value="" style="ellipse;whiteSpace=wrap;html=1;aspect=fixed;fillStyle=auto;gradientColor=none;fillColor=#009900;shadow=0;strokeWidth=2;container=0;" vertex="1" parent="1">
          <mxGeometry x="4733.403181818182" y="2281.3232394366196" width="160.11267605633802" height="160.11267605633802" as="geometry" />
        </mxCell>
        <mxCell id="F8xEr5KseKwtPBaZ8XjF-16" value="" style="ellipse;whiteSpace=wrap;html=1;aspect=fixed;fillStyle=auto;gradientColor=none;fillColor=#007FFF;shadow=0;strokeWidth=2;container=0;" vertex="1" parent="1">
          <mxGeometry x="4614.628238636365" y="2281.3232394366196" width="160.11267605633802" height="160.11267605633802" as="geometry" />
        </mxCell>
        <mxCell id="F8xEr5KseKwtPBaZ8XjF-17" value="&lt;font face=&quot;Comic Sans MS&quot; style=&quot;font-size: 18px;&quot;&gt;&lt;b style=&quot;&quot;&gt;U&lt;/b&gt;&lt;/font&gt;" style="rounded=1;whiteSpace=wrap;html=1;fillColor=#FFFF00;strokeColor=none;fontColor=#000000;arcSize=20;container=0;" vertex="1" parent="1">
          <mxGeometry x="4576.650000000001" y="2244" width="49.11" height="23.66" as="geometry" />
        </mxCell>
        <mxCell id="F8xEr5KseKwtPBaZ8XjF-18" value="&lt;font face=&quot;Comic Sans MS&quot;&gt;&lt;b&gt;A&lt;/b&gt;&lt;/font&gt;" style="rounded=1;whiteSpace=wrap;html=1;fillColor=none;strokeColor=none;fontColor=#FFFFFF;arcSize=20;fontSize=18;container=0;" vertex="1" parent="1">
          <mxGeometry x="4681.644261363636" y="2289.2105633802817" width="26.079545454545457" height="23.661971830985912" as="geometry" />
        </mxCell>
        <mxCell id="F8xEr5KseKwtPBaZ8XjF-19" value="&lt;font face=&quot;Comic Sans MS&quot;&gt;&lt;b&gt;B&lt;/b&gt;&lt;/font&gt;" style="rounded=1;whiteSpace=wrap;html=1;fillColor=none;strokeColor=none;fontColor=#FFFFFF;arcSize=20;fontSize=18;container=0;" vertex="1" parent="1">
          <mxGeometry x="4800.416590909091" y="2289.2105633802817" width="26.079545454545457" height="23.661971830985912" as="geometry" />
        </mxCell>
        <mxCell id="F8xEr5KseKwtPBaZ8XjF-20" value="" style="whiteSpace=wrap;html=1;shape=mxgraph.basic.pointed_oval;fillColor=#CC00CC;strokeWidth=2;" vertex="1" parent="1">
          <mxGeometry x="4726.46" y="2307.45" width="55.73" height="107" as="geometry" />
        </mxCell>
        <mxCell id="F8xEr5KseKwtPBaZ8XjF-21" value="&amp;nbsp;A - B" style="rounded=1;whiteSpace=wrap;html=1;fillColor=#CC00CC;strokeColor=none;fontColor=#FFFFFF;arcSize=10;container=0;fontFamily=Comic Sans MS;fontSize=16;fontStyle=1" vertex="1" parent="1">
          <mxGeometry x="4635.550000000001" y="2190" width="244.13" height="33" as="geometry" />
        </mxCell>
        <mxCell id="F8xEr5KseKwtPBaZ8XjF-22" value="&lt;font color=&quot;#000000&quot;&gt; =&lt;/font&gt;" style="rounded=1;whiteSpace=wrap;html=1;fillColor=#80FF00;strokeColor=none;fontColor=#FFFFFF;arcSize=10;container=0;fontFamily=Comic Sans MS;fontSize=26;fontStyle=1;spacingBottom=5;" vertex="1" parent="1">
          <mxGeometry x="4484.2300000000005" y="2332" width="70.51" height="33" as="geometry" />
        </mxCell>
        <mxCell id="F8xEr5KseKwtPBaZ8XjF-24" value="" style="rounded=1;whiteSpace=wrap;html=1;arcSize=18;strokeColor=none;fillColor=none;container=0;" vertex="1" parent="1">
          <mxGeometry x="3980" y="2122" width="103.86" height="1092.68" as="geometry" />
        </mxCell>
        <mxCell id="F8xEr5KseKwtPBaZ8XjF-25" value="" style="rounded=1;whiteSpace=wrap;html=1;arcSize=18;strokeColor=none;fillColor=none;container=0;" vertex="1" parent="1">
          <mxGeometry x="4960" y="2119" width="103.86" height="1101" as="geometry" />
        </mxCell>
        <mxCell id="F8xEr5KseKwtPBaZ8XjF-26" value="&lt;font color=&quot;#000000&quot;&gt;&lt;span&gt;A âˆ© BÌ„ =&amp;nbsp;&lt;/span&gt;&lt;span&gt;A - B (True)&lt;/span&gt;&lt;/font&gt;" style="rounded=1;whiteSpace=wrap;html=1;fillColor=#80FF00;strokeColor=none;fontColor=#FFFFFF;arcSize=10;container=0;fontFamily=Comic Sans MS;fontSize=20;fontStyle=1;spacingBottom=0;" vertex="1" parent="1">
          <mxGeometry x="4330.34" y="2142.73" width="377.38" height="33" as="geometry" />
        </mxCell>
        <mxCell id="F8xEr5KseKwtPBaZ8XjF-27" value="" style="endArrow=none;html=1;rounded=0;strokeColor=#333333;strokeWidth=3;endFill=0;endSize=4;" edge="1" parent="1">
          <mxGeometry width="50" height="50" relative="1" as="geometry">
            <mxPoint x="4098" y="2124" as="sourcePoint" />
            <mxPoint x="4940" y="2120" as="targetPoint" />
          </mxGeometry>
        </mxCell>
        <mxCell id="F8xEr5KseKwtPBaZ8XjF-28" value="" style="rounded=1;whiteSpace=wrap;html=1;fillColor=#CC00CC;strokeColor=default;arcSize=0;strokeWidth=2;container=0;" vertex="1" parent="1">
          <mxGeometry x="4098.49" y="2604" width="372" height="228.73" as="geometry" />
        </mxCell>
        <mxCell id="F8xEr5KseKwtPBaZ8XjF-29" value="" style="ellipse;whiteSpace=wrap;html=1;aspect=fixed;fillStyle=auto;gradientColor=none;fillColor=#009900;shadow=0;strokeWidth=2;container=0;" vertex="1" parent="1">
          <mxGeometry x="4264.323181818181" y="2651.3232394366196" width="160.11267605633802" height="160.11267605633802" as="geometry" />
        </mxCell>
        <mxCell id="F8xEr5KseKwtPBaZ8XjF-30" value="" style="ellipse;whiteSpace=wrap;html=1;aspect=fixed;fillStyle=auto;gradientColor=none;fillColor=#007FFF;shadow=0;strokeWidth=2;container=0;" vertex="1" parent="1">
          <mxGeometry x="4145.548238636364" y="2651.3232394366196" width="160.11267605633802" height="160.11267605633802" as="geometry" />
        </mxCell>
        <mxCell id="F8xEr5KseKwtPBaZ8XjF-31" value="&lt;font face=&quot;Comic Sans MS&quot; style=&quot;font-size: 18px;&quot;&gt;&lt;b style=&quot;&quot;&gt;U&lt;/b&gt;&lt;/font&gt;" style="rounded=1;whiteSpace=wrap;html=1;fillColor=#FFFF00;strokeColor=none;fontColor=#000000;arcSize=20;container=0;" vertex="1" parent="1">
          <mxGeometry x="4107.57" y="2614" width="49.11" height="23.66" as="geometry" />
        </mxCell>
        <mxCell id="F8xEr5KseKwtPBaZ8XjF-32" value="&lt;font face=&quot;Comic Sans MS&quot;&gt;&lt;b&gt;A&lt;/b&gt;&lt;/font&gt;" style="rounded=1;whiteSpace=wrap;html=1;fillColor=none;strokeColor=none;fontColor=#FFFFFF;arcSize=20;fontSize=18;container=0;" vertex="1" parent="1">
          <mxGeometry x="4212.5642613636355" y="2659.2105633802817" width="26.079545454545457" height="23.661971830985912" as="geometry" />
        </mxCell>
        <mxCell id="F8xEr5KseKwtPBaZ8XjF-33" value="&lt;font face=&quot;Comic Sans MS&quot;&gt;&lt;b&gt;B&lt;/b&gt;&lt;/font&gt;" style="rounded=1;whiteSpace=wrap;html=1;fillColor=none;strokeColor=none;fontColor=#FFFFFF;arcSize=20;fontSize=18;container=0;" vertex="1" parent="1">
          <mxGeometry x="4331.33659090909" y="2659.2105633802817" width="26.079545454545457" height="23.661971830985912" as="geometry" />
        </mxCell>
        <mxCell id="F8xEr5KseKwtPBaZ8XjF-34" value="" style="whiteSpace=wrap;html=1;shape=mxgraph.basic.pointed_oval;fillColor=#00FFFF;strokeWidth=2;" vertex="1" parent="1">
          <mxGeometry x="4257.379999999999" y="2677.45" width="55.73" height="107" as="geometry" />
        </mxCell>
        <mxCell id="F8xEr5KseKwtPBaZ8XjF-35" value="&lt;font&gt;A âˆª B&amp;nbsp;&lt;/font&gt;" style="rounded=1;whiteSpace=wrap;html=1;fillColor=#CC00CC;strokeColor=none;fontColor=#FFFFFF;arcSize=10;container=0;fontFamily=Comic Sans MS;fontSize=16;fontStyle=1;spacingBottom=-2;" vertex="1" parent="1">
          <mxGeometry x="4163.18" y="2560" width="244.13" height="33" as="geometry" />
        </mxCell>
        <mxCell id="F8xEr5KseKwtPBaZ8XjF-36" value="" style="rounded=1;whiteSpace=wrap;html=1;fillColor=#FF00FF;strokeColor=default;arcSize=0;strokeWidth=2;container=0;" vertex="1" parent="1">
          <mxGeometry x="4568.06" y="2604" width="372" height="228.73" as="geometry" />
        </mxCell>
        <mxCell id="F8xEr5KseKwtPBaZ8XjF-37" value="" style="ellipse;whiteSpace=wrap;html=1;aspect=fixed;fillStyle=auto;gradientColor=none;fillColor=#009900;shadow=0;strokeWidth=2;container=0;" vertex="1" parent="1">
          <mxGeometry x="4733.893181818182" y="2651.3232394366196" width="160.11267605633802" height="160.11267605633802" as="geometry" />
        </mxCell>
        <mxCell id="F8xEr5KseKwtPBaZ8XjF-38" value="" style="ellipse;whiteSpace=wrap;html=1;aspect=fixed;fillStyle=auto;gradientColor=none;fillColor=#007FFF;shadow=0;strokeWidth=2;container=0;" vertex="1" parent="1">
          <mxGeometry x="4615.118238636364" y="2651.3232394366196" width="160.11267605633802" height="160.11267605633802" as="geometry" />
        </mxCell>
        <mxCell id="F8xEr5KseKwtPBaZ8XjF-39" value="&lt;font face=&quot;Comic Sans MS&quot; style=&quot;font-size: 18px;&quot;&gt;&lt;b style=&quot;&quot;&gt;U&lt;/b&gt;&lt;/font&gt;" style="rounded=1;whiteSpace=wrap;html=1;fillColor=#FFFF00;strokeColor=none;fontColor=#000000;arcSize=20;container=0;" vertex="1" parent="1">
          <mxGeometry x="4577.14" y="2614" width="49.11" height="23.66" as="geometry" />
        </mxCell>
        <mxCell id="F8xEr5KseKwtPBaZ8XjF-40" value="&lt;font face=&quot;Comic Sans MS&quot;&gt;&lt;b&gt;A&lt;/b&gt;&lt;/font&gt;" style="rounded=1;whiteSpace=wrap;html=1;fillColor=none;strokeColor=none;fontColor=#FFFFFF;arcSize=20;fontSize=18;container=0;" vertex="1" parent="1">
          <mxGeometry x="4682.134261363636" y="2659.2105633802817" width="26.079545454545457" height="23.661971830985912" as="geometry" />
        </mxCell>
        <mxCell id="F8xEr5KseKwtPBaZ8XjF-41" value="&lt;font face=&quot;Comic Sans MS&quot;&gt;&lt;b&gt;B&lt;/b&gt;&lt;/font&gt;" style="rounded=1;whiteSpace=wrap;html=1;fillColor=none;strokeColor=none;fontColor=#FFFFFF;arcSize=20;fontSize=18;container=0;" vertex="1" parent="1">
          <mxGeometry x="4800.9065909090905" y="2659.2105633802817" width="26.079545454545457" height="23.661971830985912" as="geometry" />
        </mxCell>
        <mxCell id="F8xEr5KseKwtPBaZ8XjF-42" value="" style="whiteSpace=wrap;html=1;shape=mxgraph.basic.pointed_oval;fillColor=#33FFFF;strokeWidth=2;" vertex="1" parent="1">
          <mxGeometry x="4726.95" y="2677.45" width="55.73" height="107" as="geometry" />
        </mxCell>
        <mxCell id="F8xEr5KseKwtPBaZ8XjF-43" value="Ä€ âˆ© BÌ„" style="rounded=1;whiteSpace=wrap;html=1;fillColor=#CC00CC;strokeColor=none;fontColor=#FFFFFF;arcSize=10;container=0;fontFamily=Comic Sans MS;fontSize=16;fontStyle=1" vertex="1" parent="1">
          <mxGeometry x="4636.040000000001" y="2560" width="244.13" height="33" as="geometry" />
        </mxCell>
        <mxCell id="F8xEr5KseKwtPBaZ8XjF-44" value="&lt;font color=&quot;#000000&quot;&gt; =&lt;/font&gt;" style="rounded=1;whiteSpace=wrap;html=1;fillColor=#80FF00;strokeColor=none;fontColor=#FFFFFF;arcSize=10;container=0;fontFamily=Comic Sans MS;fontSize=26;fontStyle=1;spacingBottom=5;" vertex="1" parent="1">
          <mxGeometry x="4484.72" y="2702" width="70.51" height="33" as="geometry" />
        </mxCell>
        <mxCell id="F8xEr5KseKwtPBaZ8XjF-45" value="&lt;font color=&quot;#000000&quot;&gt;A âˆª B = Ä€ âˆ© BÌ„&lt;span&gt;&amp;nbsp;(True)&lt;/span&gt;&lt;/font&gt;" style="rounded=1;whiteSpace=wrap;html=1;fillColor=#80FF00;strokeColor=none;fontColor=#FFFFFF;arcSize=10;container=0;fontFamily=Comic Sans MS;fontSize=20;fontStyle=1;spacingBottom=0;" vertex="1" parent="1">
          <mxGeometry x="4330.83" y="2512.73" width="377.38" height="33" as="geometry" />
        </mxCell>
        <mxCell id="F8xEr5KseKwtPBaZ8XjF-46" value="" style="endArrow=none;html=1;rounded=0;strokeColor=#333333;strokeWidth=3;endFill=0;endSize=4;" edge="1" parent="1">
          <mxGeometry width="50" height="50" relative="1" as="geometry">
            <mxPoint x="4098.49" y="2494" as="sourcePoint" />
            <mxPoint x="4940.49" y="2490" as="targetPoint" />
          </mxGeometry>
        </mxCell>
        <mxCell id="F8xEr5KseKwtPBaZ8XjF-47" value="" style="rounded=1;whiteSpace=wrap;html=1;fillColor=#FFFFCC;strokeColor=default;arcSize=0;strokeWidth=2;container=0;" vertex="1" parent="1">
          <mxGeometry x="4107.57" y="2974" width="372" height="228.73" as="geometry" />
        </mxCell>
        <mxCell id="F8xEr5KseKwtPBaZ8XjF-48" value="" style="ellipse;whiteSpace=wrap;html=1;aspect=fixed;fillStyle=auto;gradientColor=none;fillColor=#FF00FF;shadow=0;strokeWidth=2;container=0;" vertex="1" parent="1">
          <mxGeometry x="4273.403181818181" y="3021.3232394366196" width="160.11267605633802" height="160.11267605633802" as="geometry" />
        </mxCell>
        <mxCell id="F8xEr5KseKwtPBaZ8XjF-49" value="" style="ellipse;whiteSpace=wrap;html=1;aspect=fixed;fillStyle=auto;gradientColor=none;fillColor=#007FFF;shadow=0;strokeWidth=2;container=0;" vertex="1" parent="1">
          <mxGeometry x="4154.628238636364" y="3021.3232394366196" width="160.11267605633802" height="160.11267605633802" as="geometry" />
        </mxCell>
        <mxCell id="F8xEr5KseKwtPBaZ8XjF-50" value="&lt;font face=&quot;Comic Sans MS&quot; style=&quot;font-size: 18px;&quot;&gt;&lt;b style=&quot;&quot;&gt;U&lt;/b&gt;&lt;/font&gt;" style="rounded=1;whiteSpace=wrap;html=1;fillColor=#FFFF00;strokeColor=none;fontColor=#000000;arcSize=20;container=0;" vertex="1" parent="1">
          <mxGeometry x="4116.65" y="2984" width="49.11" height="23.66" as="geometry" />
        </mxCell>
        <mxCell id="F8xEr5KseKwtPBaZ8XjF-51" value="&lt;font face=&quot;Comic Sans MS&quot;&gt;&lt;b&gt;A&lt;/b&gt;&lt;/font&gt;" style="rounded=1;whiteSpace=wrap;html=1;fillColor=none;strokeColor=none;fontColor=#FFFFFF;arcSize=20;fontSize=18;container=0;" vertex="1" parent="1">
          <mxGeometry x="4221.644261363635" y="3029.2105633802817" width="26.079545454545457" height="23.661971830985912" as="geometry" />
        </mxCell>
        <mxCell id="F8xEr5KseKwtPBaZ8XjF-52" value="&lt;font face=&quot;Comic Sans MS&quot;&gt;&lt;b&gt;B&lt;/b&gt;&lt;/font&gt;" style="rounded=1;whiteSpace=wrap;html=1;fillColor=none;strokeColor=none;fontColor=#FFFFFF;arcSize=20;fontSize=18;container=0;" vertex="1" parent="1">
          <mxGeometry x="4340.41659090909" y="3029.2105633802817" width="26.079545454545457" height="23.661971830985912" as="geometry" />
        </mxCell>
        <mxCell id="F8xEr5KseKwtPBaZ8XjF-53" value="" style="whiteSpace=wrap;html=1;shape=mxgraph.basic.pointed_oval;fillColor=#00FFFF;strokeWidth=2;" vertex="1" parent="1">
          <mxGeometry x="4266.459999999999" y="3047.45" width="55.73" height="107" as="geometry" />
        </mxCell>
        <mxCell id="F8xEr5KseKwtPBaZ8XjF-54" value="Ä€ âˆ© B" style="rounded=1;whiteSpace=wrap;html=1;fillColor=#CC00CC;strokeColor=none;fontColor=#FFFFFF;arcSize=10;container=0;fontFamily=Comic Sans MS;fontSize=16;fontStyle=1" vertex="1" parent="1">
          <mxGeometry x="4172.26" y="2930" width="244.13" height="33" as="geometry" />
        </mxCell>
        <mxCell id="F8xEr5KseKwtPBaZ8XjF-55" value="" style="rounded=1;whiteSpace=wrap;html=1;fillColor=#FF00FF;strokeColor=default;arcSize=0;strokeWidth=2;container=0;" vertex="1" parent="1">
          <mxGeometry x="4577.14" y="2974" width="372" height="228.73" as="geometry" />
        </mxCell>
        <mxCell id="F8xEr5KseKwtPBaZ8XjF-56" value="" style="ellipse;whiteSpace=wrap;html=1;aspect=fixed;fillStyle=auto;gradientColor=none;fillColor=#FF00FF;shadow=0;strokeWidth=2;container=0;" vertex="1" parent="1">
          <mxGeometry x="4742.973181818182" y="3021.3232394366196" width="160.11267605633802" height="160.11267605633802" as="geometry" />
        </mxCell>
        <mxCell id="F8xEr5KseKwtPBaZ8XjF-57" value="" style="ellipse;whiteSpace=wrap;html=1;aspect=fixed;fillStyle=auto;gradientColor=none;fillColor=#FF00FF;shadow=0;strokeWidth=2;container=0;" vertex="1" parent="1">
          <mxGeometry x="4624.198238636364" y="3021.3232394366196" width="160.11267605633802" height="160.11267605633802" as="geometry" />
        </mxCell>
        <mxCell id="F8xEr5KseKwtPBaZ8XjF-58" value="&lt;font face=&quot;Comic Sans MS&quot; style=&quot;font-size: 18px;&quot;&gt;&lt;b style=&quot;&quot;&gt;U&lt;/b&gt;&lt;/font&gt;" style="rounded=1;whiteSpace=wrap;html=1;fillColor=#FFFF00;strokeColor=none;fontColor=#000000;arcSize=20;container=0;" vertex="1" parent="1">
          <mxGeometry x="4586.22" y="2984" width="49.11" height="23.66" as="geometry" />
        </mxCell>
        <mxCell id="F8xEr5KseKwtPBaZ8XjF-59" value="&lt;font face=&quot;Comic Sans MS&quot;&gt;&lt;b&gt;A&lt;/b&gt;&lt;/font&gt;" style="rounded=1;whiteSpace=wrap;html=1;fillColor=none;strokeColor=none;fontColor=#FFFFFF;arcSize=20;fontSize=18;container=0;" vertex="1" parent="1">
          <mxGeometry x="4691.214261363636" y="3029.2105633802817" width="26.079545454545457" height="23.661971830985912" as="geometry" />
        </mxCell>
        <mxCell id="F8xEr5KseKwtPBaZ8XjF-60" value="&lt;font face=&quot;Comic Sans MS&quot;&gt;&lt;b&gt;B&lt;/b&gt;&lt;/font&gt;" style="rounded=1;whiteSpace=wrap;html=1;fillColor=none;strokeColor=none;fontColor=#FFFFFF;arcSize=20;fontSize=18;container=0;" vertex="1" parent="1">
          <mxGeometry x="4809.98659090909" y="3029.2105633802817" width="26.079545454545457" height="23.661971830985912" as="geometry" />
        </mxCell>
        <mxCell id="F8xEr5KseKwtPBaZ8XjF-61" value="" style="whiteSpace=wrap;html=1;shape=mxgraph.basic.pointed_oval;fillColor=#00FFFF;strokeWidth=2;" vertex="1" parent="1">
          <mxGeometry x="4736.03" y="3047.45" width="55.73" height="107" as="geometry" />
        </mxCell>
        <mxCell id="F8xEr5KseKwtPBaZ8XjF-62" value="Ä€ âˆª BÌ„" style="rounded=1;whiteSpace=wrap;html=1;fillColor=#CC00CC;strokeColor=none;fontColor=#FFFFFF;arcSize=10;container=0;fontFamily=Comic Sans MS;fontSize=16;fontStyle=1" vertex="1" parent="1">
          <mxGeometry x="4645.120000000001" y="2930" width="244.13" height="33" as="geometry" />
        </mxCell>
        <mxCell id="F8xEr5KseKwtPBaZ8XjF-63" value="&lt;font style=&quot;font-size: 33px;&quot;&gt;â‰ &lt;/font&gt;" style="rounded=1;whiteSpace=wrap;html=1;fillColor=#FF0000;strokeColor=none;fontColor=#FFFFFF;arcSize=10;container=0;fontFamily=Comic Sans MS;fontSize=26;fontStyle=1;spacingBottom=5;" vertex="1" parent="1">
          <mxGeometry x="4493.8" y="3072" width="70.51" height="35" as="geometry" />
        </mxCell>
        <mxCell id="F8xEr5KseKwtPBaZ8XjF-64" value="Ä€ âˆ© B â‰  Ä€ âˆª BÌ„ (False)" style="rounded=1;whiteSpace=wrap;html=1;fillColor=#FF0000;strokeColor=none;fontColor=#FFFFFF;arcSize=10;container=0;fontFamily=Comic Sans MS;fontSize=20;fontStyle=1;spacingBottom=0;" vertex="1" parent="1">
          <mxGeometry x="4339.91" y="2882.73" width="377.38" height="33" as="geometry" />
        </mxCell>
        <mxCell id="F8xEr5KseKwtPBaZ8XjF-65" value="" style="endArrow=none;html=1;rounded=0;strokeColor=#333333;strokeWidth=3;endFill=0;endSize=4;" edge="1" parent="1">
          <mxGeometry width="50" height="50" relative="1" as="geometry">
            <mxPoint x="4107.57" y="2864" as="sourcePoint" />
            <mxPoint x="4949.57" y="2860" as="targetPoint" />
          </mxGeometry>
        </mxCell>
        <mxCell id="F8xEr5KseKwtPBaZ8XjF-66" value="" style="endArrow=none;html=1;rounded=0;strokeWidth=2;strokeColor=#FFFFFF;" edge="1" parent="1">
          <mxGeometry width="50" height="50" relative="1" as="geometry">
            <mxPoint x="4259" y="2566" as="sourcePoint" />
            <mxPoint x="4305" y="2566" as="targetPoint" />
          </mxGeometry>
        </mxCell>
        <mxCell id="F8xEr5KseKwtPBaZ8XjF-67" value="" style="endArrow=none;html=1;rounded=0;strokeWidth=2;strokeColor=#FFFFFF;" edge="1" parent="1">
          <mxGeometry width="50" height="50" relative="1" as="geometry">
            <mxPoint x="4259" y="2566" as="sourcePoint" />
            <mxPoint x="4305" y="2566" as="targetPoint" />
          </mxGeometry>
        </mxCell>
        <mxCell id="F8xEr5KseKwtPBaZ8XjF-68" value="" style="endArrow=none;html=1;rounded=0;strokeWidth=2;strokeColor=#000000;" edge="1" parent="1">
          <mxGeometry width="50" height="50" relative="1" as="geometry">
            <mxPoint x="4412.39" y="2518" as="sourcePoint" />
            <mxPoint x="4468" y="2518" as="targetPoint" />
          </mxGeometry>
        </mxCell>
      </root>
    </mxGraphModel>
  </diagram>
</mxfile>
